<?xml version="1.0" encoding="utf-8"?>
<!-- Generator: Adobe Illustrator 22.1.0, SVG Export Plug-In . SVG Version: 6.00 Build 0)  -->
<svg version="1.1" id="Capa_1" xmlns="http://www.w3.org/2000/svg" xmlns:xlink="http://www.w3.org/1999/xlink" x="0px" y="0px"
	 viewBox="0 0 750 1334" style="enable-background:new 0 0 750 1334;" xml:space="preserve">
<style type="text/css">
	.st0{fill:#FFFFFF;}
</style>
<path class="st0" d="M483.8,467.6c0,24.9,0,49.4,0,74.5c-5.8,0-11.4,0-17,0c-10.3,0-20.7-0.1-31,0c-11.4,0.1-18.9,6-19.4,17.2
	c-0.7,16.1-0.2,32.2-0.2,49c23,0,45.7,0,68.9,0c-2.7,26-5.3,51.3-7.9,77.1c-20.5,0-40.6,0-61.1,0c0,72.8,0,145.1,0,217.6
	c-30.4,0-60.2,0-90.7,0c0-72.5,0-144.8,0-217.6c-14.5,0-28.4,0-42.7,0c0-25.8,0-51,0-77c14.1,0,28.1,0,42.8,0c0-2.6,0-4.6,0-6.5
	c0.2-18-0.6-36.1,0.8-54c2.3-29.2,13.9-53.7,40.3-69.1c13.6-7.9,28.5-11.3,44-11.6c23.7-0.4,47.3-0.1,71,0
	C482.1,467.2,482.8,467.4,483.8,467.6z"/>
</svg>
