<?xml version="1.0" encoding="utf-8"?>
<!-- Generator: Adobe Illustrator 22.0.1, SVG Export Plug-In . SVG Version: 6.00 Build 0)  -->
<svg version="1.1" id="Layer_1" xmlns="http://www.w3.org/2000/svg" xmlns:xlink="http://www.w3.org/1999/xlink" x="0px" y="0px"
	 viewBox="0 0 299.3 99.7" style="enable-background:new 0 0 299.3 99.7;" xml:space="preserve">
<style type="text/css">
	.st0{fill:#FFFFFF;}
</style>
<title>Logo-Horizontal</title>
<g id="Layer_2_1_">
	<g id="Layer_1-2">
		<g>
			<g>
				<path class="st0" d="M66.9,63.5C67,51.1,46,28.3,45.1,27.3c-0.2-0.2-0.5-0.3-0.9-0.3l0,0c-0.3,0-0.7,0.1-0.9,0.4
					C43.2,27.5,21,50.4,20.9,63c-0.1,12.3,9.4,22.5,21.7,23.2v-9.3L29.9,63.9c-0.2-0.2-0.4-0.5-0.4-0.8c0-0.3,0.2-0.7,0.4-0.9
					c0.2-0.2,0.5-0.4,0.8-0.3l0,0c0.3,0,0.6,0.1,0.9,0.4l10.9,11l0.1-9.5l-8.3-8.5C34.1,55,34,54.7,34,54.4c0-0.3,0.2-0.7,0.4-0.9
					c0.2-0.2,0.5-0.4,0.8-0.3c0.3,0,0.6,0.1,0.9,0.4l6.6,6.6l0.2-14.4c0-0.7,0.5-1.2,1.2-1.2c0,0,0,0,0.1,0h0.3c0.6,0.1,1,0.6,1,1.2
					l-0.1,14.4l6.7-6.5c0.2-0.2,0.6-0.4,0.9-0.3H53c0.3,0.1,0.5,0.2,0.7,0.4c0.2,0.2,0.4,0.5,0.3,0.8c0,0.3-0.1,0.6-0.4,0.9
					l-8.4,8.3L45,73.3l11.2-10.8c0.2-0.2,0.5-0.4,0.8-0.3c0.3,0,0.6,0.1,0.8,0.4l0,0c0.3,0.3,0.4,0.7,0.3,1.1
					c-0.1,0.2-0.2,0.5-0.4,0.6L45,76.9l0.2,8.6c0,0.1,0,0.3,0,0.7C57.3,85.5,66.8,75.6,66.9,63.5z"/>
				<path class="st0" d="M83.1,22.5L48.6,2.5c-2.9-1.7-6.5-1.7-9.4,0L4.7,22.5C1.8,24.1,0,27.2,0,30.6v39.8c0,3.4,1.8,6.5,4.7,8.1
					l34.5,19.9c1.1,0.6,2.2,1,3.4,1.2l0-11.4C29.2,87.5,18.8,76.4,18.9,63C19,49.6,41,26.9,42,25.9c0.6-0.6,1.4-0.9,2.3-0.9
					c0.8,0,1.6,0.3,2.2,0.9l0.1,0c0.9,1,22.5,24.2,22.3,37.5C68.8,76.8,58.3,87.7,45,88.2l0,11.4c1.2-0.2,2.4-0.6,3.5-1.2l34.5-19.9
					c2.9-1.7,4.7-4.8,4.7-8.1V30.6C87.8,27.2,86,24.1,83.1,22.5z"/>
			</g>
			<g>
				<path class="st0" d="M130.5,50.5l-10-2.5c-6.8-1.8-9.6-4.3-9.6-8.8c0-2,1-8.3,13.4-8.3c7.2,0,13,3.2,16.4,8.9l0.5,0.9l2.9-3
					l-0.3-0.5c-3.8-6.7-10.6-10.2-19.7-10.2c-11.3,0-17.7,4.5-17.7,12.4c0,6.6,3.9,10.5,12.8,12.7l10,2.6c7,1.9,9.7,4.6,9.7,9.8
					c0,8.7-11,9.3-14.4,9.3c-6.1,0.2-12-2.4-16.1-7l-0.6-0.7l-2.6,3.2l0.4,0.5c4.7,5.3,11,8,18.9,8c12,0,18.8-4.9,18.8-13.5
					C143.3,56.9,139.6,52.9,130.5,50.5z"/>
				<path class="st0" d="M194.8,54v-6.8c0-17.8-12.6-20.5-20.2-20.5c-13.1,0-20.7,7.5-20.7,20.5V57c0,18.1,13,20.8,20.7,20.8
					c9.2,0,15.9-3,19.3-8.7l0.4-0.6l-3.3-2.7l-0.4,0.7c-3.1,4.7-8.5,7.1-15.9,7.1c-14.2,0-16.3-10.6-16.3-16.9V54H194.8z
					 M174.6,30.9c4.7,0,15.6,1.6,15.6,16.3v3.2h-31.8v-3.2C158.4,32.5,169.7,30.9,174.6,30.9z"/>
				<path class="st0" d="M245.8,54v-6.8c0-17.8-12.6-20.5-20.2-20.5c-13.1,0-20.6,7.5-20.6,20.5V57c0,18.1,13,20.8,20.7,20.8
					c9.2,0,15.9-3,19.4-8.7l0.3-0.6l-3.3-2.7l-0.5,0.7c-3.1,4.7-8.5,7.1-15.9,7.1c-14.2,0-16.3-10.6-16.3-16.9V54H245.8z
					 M225.6,30.9c4.7,0,15.6,1.6,15.6,16.3v3.2h-31.8v-3.2C209.4,32.5,220.8,30.9,225.6,30.9z"/>
				<g>
					<path class="st0" d="M298.5,0.8v74.9h-2.7v-8.7c-3.9,7.4-11.2,10.1-18.4,10.1c-11,0-20.6-5-20.6-20.2v-9.2
						c0-15.2,9.8-20.2,20.7-20.2c7.2,0,14.5,2.5,18,9.5V0.8H298.5z M295.5,62.5V42.1C293,32.9,284.6,30,277.9,30
						c-8.6,0-18.1,4-18.1,17.8v8.8c0,13.8,9.5,17.8,18,17.8C284.3,74.4,292.3,71.5,295.5,62.5L295.5,62.5z"/>
					<path class="st0" d="M277.4,77.8c-8,0-21.4-2.7-21.4-21v-9.1c0-18.3,13.5-21,21.5-21c4.6,0,12.6,1,17.2,7.5V0h4.5v76.4H295
						v-6.8C291.3,74.9,285.1,77.8,277.4,77.8z M277.5,28.1c-16.5,0-20,10.6-20,19.5v9.1c0,8.9,3.5,19.5,19.9,19.5
						c4.7,0,13.4-1.2,17.7-9.7l1.4-2.7v11.1h1.2V1.5h-1.5V40l-1.4-2.8C290.9,29.3,282.3,28.1,277.5,28.1L277.5,28.1z M277.8,75.1
						c-16.9,0-18.7-13-18.7-18.5v-8.8c0-5.6,1.8-18.5,18.8-18.5c3.5,0,15.2,0.9,18.3,12.7v0.2v20.6
						C292.2,74.2,281.1,75.1,277.8,75.1L277.8,75.1z M277.9,30.8c-5.2,0-17.3,1.7-17.3,17v8.8c0,15.4,12.1,17,17.2,17
						c3,0,13.2-0.8,16.9-11.3V42.2C291.9,31.6,281.1,30.8,277.9,30.8L277.9,30.8z"/>
				</g>
			</g>
		</g>
	</g>
</g>
</svg>
