<?xml version="1.0" encoding="utf-8"?>
<!-- Generator: Adobe Illustrator 22.0.1, SVG Export Plug-In . SVG Version: 6.00 Build 0)  -->
<svg version="1.1" id="Layer_1" xmlns="http://www.w3.org/2000/svg" xmlns:xlink="http://www.w3.org/1999/xlink" x="0px" y="0px"
	 viewBox="0 0 87.8 98.3" style="enable-background:new 0 0 87.8 98.3;" xml:space="preserve">
<style type="text/css">
	.st0{fill:#FFFFFF;}
</style>
<title>Symbol</title>
<g id="Layer_2_1_">
	<g id="Layer_1-2">
		<g>
			<path class="st0" d="M66.9,62.2C67,49.8,46,27,45.1,26c-0.2-0.2-0.5-0.3-0.9-0.3l0,0c-0.3,0-0.7,0.1-0.9,0.3
				C43.2,26.2,21,49.1,20.9,61.7C20.7,74,30.3,84.2,42.5,84.9v-9.3L29.9,62.6c-0.2-0.2-0.4-0.5-0.4-0.8c0-0.3,0.2-0.7,0.4-0.9
				c0.2-0.2,0.5-0.4,0.8-0.4l0,0c0.3,0,0.6,0.1,0.9,0.4L42.5,72l0.1-9.5L34.3,54c-0.5-0.4-0.5-1.2-0.1-1.7c0,0,0.1-0.1,0.1-0.1
				c0.2-0.2,0.5-0.4,0.8-0.4c0.3,0,0.6,0.2,0.9,0.4l6.6,6.6l0.2-14.4c0-0.7,0.5-1.2,1.2-1.2c0,0,0,0,0.1,0c0.7,0,1.2,0.5,1.2,1.1
				c0,0,0,0.1,0,0.1L45.1,59l6.7-6.5c0.2-0.2,0.6-0.4,0.9-0.3h0.2c0.3,0.1,0.5,0.2,0.7,0.4c0.5,0.4,0.5,1.2,0.1,1.7c0,0,0,0-0.1,0.1
				l-8.4,8.3L45,72l11.2-10.8c0.2-0.2,0.5-0.4,0.8-0.3c0.3,0,0.6,0.1,0.8,0.4l0,0c0.3,0.3,0.4,0.7,0.3,1.1c-0.1,0.2-0.2,0.5-0.4,0.6
				L45,75.6l0.2,8.6c0,0.1,0,0.3,0,0.7C57.3,84.3,66.8,74.3,66.9,62.2z"/>
			<path class="st0" d="M83.1,21.2L48.6,1.3c-2.9-1.7-6.5-1.7-9.4,0L4.7,21.2C1.8,22.8,0,26,0,29.3v39.8c0,3.4,1.8,6.5,4.7,8.1
				l34.5,19.9c1.1,0.6,2.2,1,3.4,1.2l0-11.4c-13.4-0.7-23.8-11.9-23.7-25.2C19,48.3,41,25.6,42,24.6c0.6-0.6,1.5-0.9,2.3-0.9
				c0.8,0,1.6,0.3,2.2,0.9h0.1c0.9,1,22.5,24.2,22.3,37.5C68.8,75.5,58.3,86.4,45,86.9l0,11.4c1.2-0.2,2.4-0.6,3.5-1.2l34.5-19.9
				c2.9-1.7,4.7-4.8,4.7-8.1V29.3C87.8,26,86,22.8,83.1,21.2z"/>
		</g>
	</g>
</g>
</svg>
