<svg xmlns="http://www.w3.org/2000/svg" viewBox="0 0 62.01 51.99">
  <defs>
    <style>
      .cls-1 {
        fill: #cdf0f0;
      }

      .cls-2 {
        fill: #000064;
        opacity: 0.1;
      }

      .cls-3 {
        fill: #fff;
        opacity: 0.5;
      }

      .cls-4 {
        fill: #fc0;
      }

      .cls-5 {
        fill: none;
        stroke: #2e4369;
        stroke-linecap: round;
        stroke-linejoin: round;
        stroke-width: 2px;
      }
    </style>
  </defs>
  <title>Asset 52</title>
  <g id="Layer_2" data-name="Layer 2">
    <g id="Layer_1-2" data-name="Layer 1">
      <g>
        <g>
          <path class="cls-1" d="M42.5,20h-.41a13.58,13.58,0,0,0-25.72,3.78,9,9,0,0,0-2.57-.38A8.8,8.8,0,1,0,13.8,41H42.5a10.5,10.5,0,0,0,0-21Z"/>
          <path class="cls-2" d="M16,26.5a14.55,14.55,0,0,1,.27-2.74A8.79,8.79,0,1,0,13.8,41H30.38A14.49,14.49,0,0,1,16,26.5Z"/>
          <path class="cls-3" d="M53,30.5A10.5,10.5,0,0,0,42.5,20h-.41A13.56,13.56,0,0,0,23,14c.34,0,.67,0,1,0a16.93,16.93,0,0,1,13.81,7.12,10.61,10.61,0,0,0-3.09,2.34A12.2,12.2,0,0,1,38,23,12,12,0,0,1,50,35a12.2,12.2,0,0,1-.46,3.28A10.47,10.47,0,0,0,53,30.5Z"/>
          <path class="cls-4" d="M13,1A12,12,0,0,0,9.56,24.5h0a8.72,8.72,0,0,1,6.82-.71A13.59,13.59,0,0,1,25,13.07L25,13A12,12,0,0,0,13,1Z"/>
          <path class="cls-2" d="M9.56,24.5a8.72,8.72,0,0,1,6.82-.71A13.59,13.59,0,0,1,25,13.07L25,13c0-.21,0-.42,0-.63a14.09,14.09,0,0,0-2.16-.17A13.59,13.59,0,0,0,9.37,23.78a8.78,8.78,0,0,0-2.31-.36,12.1,12.1,0,0,0,2.5,1.08Z"/>
        </g>
        <g>
          <path class="cls-5" d="M9.56,24.5A12,12,0,1,1,25,13"/>
          <path class="cls-5" d="M53,27a4,4,0,0,1,4,4h0a4,4,0,0,1-4,4H47"/>
          <path class="cls-5" d="M57,49a4,4,0,0,0,4-4h0a4,4,0,0,0-4-4H47"/>
          <path class="cls-5" d="M48.21,21.85a10.3,10.3,0,0,0-5.6-1.64l-.4,0a13.58,13.58,0,0,0-25.83,3.56A8.79,8.79,0,1,0,13.81,41H36a5,5,0,0,1,5,5h0a5,5,0,0,1-5,5"/>
          <path class="cls-5" d="M22.33,33H39a4,4,0,0,0,4-4h0a4,4,0,0,0-4-4"/>
        </g>
      </g>
    </g>
  </g>
</svg>
