<svg xmlns="http://www.w3.org/2000/svg" viewBox="0 0 62 61.99">
  <defs>
    <style>
      .cls-1 {
        fill: #cdf0f0;
      }

      .cls-2 {
        fill: #000064;
        opacity: 0.1;
      }

      .cls-3 {
        fill: #fff;
        opacity: 0.5;
      }

      .cls-4 {
        fill: none;
        stroke: #2e4369;
        stroke-linecap: round;
        stroke-linejoin: round;
        stroke-width: 2px;
      }
    </style>
  </defs>
  <title>Asset 97</title>
  <g id="Layer_2" data-name="Layer 2">
    <g id="Layer_1-2" data-name="Layer 1">
      <g>
        <g>
          <path class="cls-1" d="M48,11l-.5,0a17,17,0,0,0-32.29,4.45A11,11,0,1,0,12,37H48a13,13,0,1,0,0-26Z"/>
          <path class="cls-2" d="M15,19a18.17,18.17,0,0,1,.34-3.48l-.16,0A11.12,11.12,0,0,0,12,15a11,11,0,0,0,0,22H33A18,18,0,0,1,15,19Z"/>
          <path class="cls-3" d="M61,24A13,13,0,0,0,48,11c-.17,0-.33,0-.5,0A17,17,0,0,0,35.17,1.29c-.39-.07-.78-.14-1.18-.18l-.25,0C33.16,1,32.59,1,32,1a18.32,18.32,0,0,0-3.17.29,16.86,16.86,0,0,0-8.26,4.15A22.87,22.87,0,0,1,42,12.49a13.23,13.23,0,0,0-4.16,3.45A14.95,14.95,0,0,1,58,30a14.54,14.54,0,0,1-.24,2.57A12.94,12.94,0,0,0,61,24Z"/>
        </g>
        <g>
          <path class="cls-4" d="M48,11c-.17,0-.33,0-.5,0a17,17,0,0,0-32.29,4.44A11,11,0,1,0,12,37H48a13,13,0,1,0,0-26Z"/>
          <line class="cls-4" x1="45" y1="43.99" x2="45" y2="53.99"/>
          <line class="cls-4" x1="35" y1="43.99" x2="35" y2="47.99"/>
          <line class="cls-4" x1="25" y1="43.99" x2="25" y2="53.99"/>
          <line class="cls-4" x1="15" y1="43.99" x2="15" y2="49.99"/>
          <line class="cls-4" x1="15" y1="54.99" x2="15" y2="56.99"/>
          <line class="cls-4" x1="25" y1="58.99" x2="25" y2="60.99"/>
          <line class="cls-4" x1="35" y1="52.99" x2="35" y2="54.99"/>
          <line class="cls-4" x1="45" y1="58.99" x2="45" y2="60.99"/>
        </g>
      </g>
    </g>
  </g>
</svg>
