<svg xmlns="http://www.w3.org/2000/svg" viewBox="0 0 52 57.02">
  <defs>
    <style>
      .cls-1 {
        fill: #cdf0f0;
      }

      .cls-2 {
        fill: #fc0;
      }

      .cls-3 {
        fill: #000064;
        opacity: 0.1;
      }

      .cls-4 {
        fill: #fff;
        opacity: 0.5;
      }

      .cls-5 {
        fill: none;
        stroke: #2e4369;
        stroke-linecap: round;
        stroke-linejoin: round;
        stroke-width: 2px;
      }
    </style>
  </defs>
  <title>Asset 30</title>
  <g id="Layer_2" data-name="Layer 2">
    <g id="Layer_1-2" data-name="Layer 1">
      <g>
        <g>
          <path class="cls-1" d="M40.84,37A10,10,0,0,0,51,27.14a10.06,10.06,0,0,0-10.22-9.89c-.33,0-.66,0-1,.05A13.62,13.62,0,0,0,27.15,9,13.48,13.48,0,0,0,13.63,20.56h-.11A8.38,8.38,0,0,0,5,28.78,8.38,8.38,0,0,0,13.52,37Z"/>
          <path class="cls-2" d="M13.63,20.56A13.2,13.2,0,0,1,21,10.45h0A10,10,0,1,0,10.69,21h0a8.73,8.73,0,0,1,2.82-.47Z"/>
          <path class="cls-3" d="M10.7,21a8.73,8.73,0,0,1,2.82-.47h.11A13.2,13.2,0,0,1,21,10.45h0a8.6,8.6,0,0,0-.18-1.35A13.42,13.42,0,0,0,8.63,20.56H8.52l-.46,0a9.92,9.92,0,0,0,2.63.45Z"/>
          <path class="cls-3" d="M13,23a14.24,14.24,0,0,1,.23-2.46A8.23,8.23,0,1,0,13.52,37H27A14,14,0,0,1,13,23Z"/>
          <path class="cls-4" d="M51,27.6c0-.17,0-.34,0-.52a10.06,10.06,0,0,0-10.22-9.83c-.33,0-.66,0-1,.05,0-.06,0-.12-.08-.19h0A14,14,0,0,0,27.1,9a13.81,13.81,0,0,0-9.21,3.52A17.39,17.39,0,0,1,22,12,17,17,0,0,1,35.48,18.7a10.75,10.75,0,0,0-1.82,1.54A13,13,0,0,1,49,33l.07-.09a10,10,0,0,0,1.89-5C51,27.79,51,27.7,51,27.6Z"/>
          <circle class="cls-1" cx="12" cy="46.02" r="2"/>
          <circle class="cls-1" cx="28" cy="46.02" r="2"/>
          <circle class="cls-1" cx="44" cy="46.02" r="2"/>
          <circle class="cls-1" cx="36" cy="54.02" r="2"/>
          <circle class="cls-1" cx="20" cy="54.02" r="2"/>
        </g>
        <g>
          <path class="cls-5" d="M40.84,37A10.05,10.05,0,0,0,51,27.12a10.06,10.06,0,0,0-10.22-9.89c-.33,0-.66,0-1,.05A13.62,13.62,0,0,0,27.15,9,13.48,13.48,0,0,0,13.63,20.54h-.11A8.38,8.38,0,0,0,5,28.77,8.38,8.38,0,0,0,13.52,37Z"/>
          <path class="cls-5" d="M10.69,21A10,10,0,1,1,21,10.43"/>
          <circle class="cls-5" cx="12" cy="46.02" r="2"/>
          <circle class="cls-5" cx="28" cy="46.02" r="2"/>
          <circle class="cls-5" cx="44" cy="46.02" r="2"/>
          <circle class="cls-5" cx="36" cy="54.02" r="2"/>
          <circle class="cls-5" cx="20" cy="54.02" r="2"/>
        </g>
      </g>
    </g>
  </g>
</svg>
