<svg xmlns="http://www.w3.org/2000/svg" viewBox="0 0 60.01 61.98">
  <defs>
    <style>
      .cls-1 {
        fill: #cdf0f0;
      }

      .cls-2 {
        fill: #000064;
        opacity: 0.1;
      }

      .cls-3 {
        fill: #fff;
        opacity: 0.5;
      }

      .cls-4 {
        fill: #fc0;
      }

      .cls-5 {
        fill: none;
        stroke: #2e4369;
        stroke-linecap: round;
        stroke-linejoin: round;
        stroke-width: 2px;
      }
    </style>
  </defs>
  <title>Asset 84</title>
  <g id="Layer_2" data-name="Layer 2">
    <g id="Layer_1-2" data-name="Layer 1">
      <g>
        <g>
          <path class="cls-1" d="M49,23a13,13,0,0,0-25,4.11A7.18,7.18,0,0,0,23,27a8,8,0,0,0,0,16H49a10,10,0,0,0,0-20Z"/>
          <path class="cls-2" d="M24,29a12.73,12.73,0,0,1,.14-1.86l-.07-.07v0A7.18,7.18,0,0,0,23,27a8,8,0,0,0,0,16H38A14,14,0,0,1,24,29Z"/>
          <path class="cls-3" d="M45.18,23.76a10,10,0,0,0-3.52,2.45A12,12,0,0,1,56,38a11.35,11.35,0,0,1-.24,2.35A10,10,0,0,0,49.66,23h0c-.2,0-.41,0-.62,0A13,13,0,0,0,28.27,18.4a17.68,17.68,0,0,1,16.91,5.36Z"/>
          <path class="cls-4" d="M23,27a9.28,9.28,0,0,1,1.06.1A13,13,0,0,1,30.16,17h0A10,10,0,1,0,16.73,30h0A8,8,0,0,1,23,27Z"/>
          <path class="cls-2" d="M16.73,30h0A8,8,0,0,1,23,27a9.28,9.28,0,0,1,1.06.1A13,13,0,0,1,30.16,17h0a10.33,10.33,0,0,0-.94-1.65A13,13,0,0,0,19.07,27.09,7.18,7.18,0,0,0,18,27a8,8,0,0,0-4,1.1A9.92,9.92,0,0,0,16.73,30Z"/>
        </g>
        <g>
          <g>
            <path class="cls-5" d="M16.73,30A10,10,0,1,1,30.16,17"/>
            <line class="cls-5" x1="21.01" y1="1" x2="21.01" y2="5.02"/>
            <line class="cls-5" x1="5.01" y1="20.98" x2="1" y2="21.01"/>
            <line class="cls-5" x1="7.01" y1="6.98" x2="10.01" y2="9.98"/>
            <line class="cls-5" x1="35.01" y1="6.98" x2="32.01" y2="9.98"/>
            <line class="cls-5" x1="10.01" y1="31.98" x2="7.01" y2="34.98"/>
            <path class="cls-5" d="M49,23a13,13,0,0,0-25,4.11A9.28,9.28,0,0,0,23,27a8,8,0,0,0,0,16H49a10,10,0,0,0,0-20Z"/>
          </g>
          <line class="cls-5" x1="49.01" y1="48.99" x2="49.01" y2="60.98"/>
          <line class="cls-5" x1="41.01" y1="48.99" x2="41.01" y2="54.98"/>
          <line class="cls-5" x1="33.01" y1="48.99" x2="33.01" y2="60.98"/>
          <line class="cls-5" x1="25.01" y1="48.99" x2="25.01" y2="54.98"/>
        </g>
      </g>
    </g>
  </g>
</svg>
