<svg xmlns="http://www.w3.org/2000/svg" viewBox="0 0 60.01 60">
  <defs>
    <style>
      .cls-1 {
        fill: #cdf0f0;
      }

      .cls-2 {
        fill: #000064;
        opacity: 0.1;
      }

      .cls-3 {
        fill: #fff;
        opacity: 0.5;
      }

      .cls-4 {
        fill: #fc0;
      }

      .cls-5 {
        fill: none;
        stroke: #2e4369;
        stroke-linecap: round;
        stroke-linejoin: round;
        stroke-width: 2px;
      }
    </style>
  </defs>
  <title>Asset 27</title>
  <g id="Layer_2" data-name="Layer 2">
    <g id="Layer_1-2" data-name="Layer 1">
      <g>
        <g>
          <path class="cls-1" d="M49,23a13,13,0,0,0-25,4.11A7.47,7.47,0,0,0,23,27a8,8,0,0,0,0,16H49a10,10,0,0,0,0-20Z"/>
          <path class="cls-2" d="M24,29a14.28,14.28,0,0,1,.14-1.86l-.07-.07v0A7.47,7.47,0,0,0,23,27a8,8,0,0,0,0,16H38A14,14,0,0,1,24,29Z"/>
          <path class="cls-3" d="M45.17,23.78a10.2,10.2,0,0,0-3.52,2.45A12.16,12.16,0,0,1,44,26,12,12,0,0,1,56,38a12.16,12.16,0,0,1-.23,2.35A10,10,0,0,0,49.65,23h0c-.21,0-.42,0-.63,0a13,13,0,0,0-20.76-4.58,17.68,17.68,0,0,1,16.91,5.36Z"/>
          <path class="cls-4" d="M23,27a7.32,7.32,0,0,1,1.06.11A13,13,0,0,1,30.15,17h0A10,10,0,1,0,16.72,30.06h0A8,8,0,0,1,23,27Z"/>
          <path class="cls-2" d="M16.72,30.06h0A8,8,0,0,1,23,27a7.32,7.32,0,0,1,1.06.11A13,13,0,0,1,30.15,17h0a10.33,10.33,0,0,0-.94-1.65A13,13,0,0,0,19.07,27.11,7.47,7.47,0,0,0,18,27a8,8,0,0,0-4,1.1A10.13,10.13,0,0,0,16.72,30.06Z"/>
          <circle class="cls-1" cx="23" cy="48" r="1"/>
          <circle class="cls-1" cx="39" cy="48" r="1"/>
          <circle class="cls-1" cx="49" cy="50" r="1"/>
          <circle class="cls-1" cx="29" cy="52" r="1"/>
          <circle class="cls-1" cx="21" cy="56" r="1"/>
          <circle class="cls-1" cx="37" cy="56" r="1"/>
          <circle class="cls-1" cx="47" cy="58" r="1"/>
        </g>
        <g>
          <g>
            <path class="cls-5" d="M16.73,30A10,10,0,1,1,30.15,17"/>
            <line class="cls-5" x1="21.01" y1="1" x2="21" y2="5"/>
            <line class="cls-5" x1="5" y1="21" x2="1" y2="21"/>
            <line class="cls-5" x1="7" y1="7" x2="10" y2="10"/>
            <line class="cls-5" x1="35" y1="7" x2="32" y2="10"/>
            <line class="cls-5" x1="10" y1="32" x2="7" y2="35"/>
            <path class="cls-5" d="M49,23a13,13,0,0,0-25,4.11A7.46,7.46,0,0,0,23,27a8,8,0,0,0,0,16H49a10,10,0,0,0,0-20Z"/>
          </g>
          <circle class="cls-5" cx="23" cy="48" r="1"/>
          <circle class="cls-5" cx="39" cy="48" r="1"/>
          <circle class="cls-5" cx="49" cy="50" r="1"/>
          <circle class="cls-5" cx="29" cy="52" r="1"/>
          <circle class="cls-5" cx="21" cy="56" r="1"/>
          <circle class="cls-5" cx="37" cy="56" r="1"/>
          <circle class="cls-5" cx="47" cy="58" r="1"/>
        </g>
      </g>
    </g>
  </g>
</svg>
