<svg xmlns="http://www.w3.org/2000/svg" viewBox="0 0 62 48">
  <defs>
    <style>
      .cls-1 {
        fill: #cdf0f0;
      }

      .cls-2 {
        fill: #000064;
        opacity: 0.1;
      }

      .cls-3 {
        fill: #fff;
        opacity: 0.5;
      }

      .cls-4 {
        fill: none;
        stroke: #2e4369;
        stroke-linecap: round;
        stroke-linejoin: round;
        stroke-width: 2px;
      }
    </style>
  </defs>
  <title>Asset 99</title>
  <g id="Layer_2" data-name="Layer 2">
    <g id="Layer_1-2" data-name="Layer 1">
      <g>
        <g>
          <path class="cls-1" d="M58.94,31A13,13,0,0,0,48,11c-.17,0-.33,0-.5,0a17,17,0,0,0-32.29,4.45A11,11,0,0,0,2.21,31Z"/>
          <path class="cls-2" d="M19.61,31A17.9,17.9,0,0,1,15,19a18.09,18.09,0,0,1,.34-3.48l-.16,0A10.78,10.78,0,0,0,12,15,11,11,0,0,0,2.21,31Z"/>
          <path class="cls-3" d="M42,12.5a13.17,13.17,0,0,0-4.16,3.44A15,15,0,0,1,58,30c0,.34,0,.67,0,1h1A13,13,0,0,0,48,11c-.17,0-.33,0-.5,0A17,17,0,0,0,35.17,1.3c-.39-.07-.78-.14-1.18-.18l-.25,0A16.61,16.61,0,0,0,32,1a17.47,17.47,0,0,0-3.17.29,16.82,16.82,0,0,0-8.26,4.15A22.87,22.87,0,0,1,42,12.5Z"/>
        </g>
        <g>
          <path class="cls-4" d="M61,24A13,13,0,0,0,48,11c-.17,0-.33,0-.5,0a17,17,0,0,0-32.29,4.45A11,11,0,0,0,1.05,25"/>
          <line class="cls-4" x1="1" y1="31" x2="61" y2="31"/>
          <line class="cls-4" x1="7" y1="39" x2="57" y2="39"/>
          <line class="cls-4" x1="11.01" y1="47" x2="26.98" y2="47"/>
          <line class="cls-4" x1="35.01" y1="47" x2="54.99" y2="47"/>
        </g>
      </g>
    </g>
  </g>
</svg>
