<svg xmlns="http://www.w3.org/2000/svg" viewBox="0 0 62 44">
  <defs>
    <style>
      .cls-1 {
        fill: #cdf0f0;
      }

      .cls-2 {
        fill: #fc0;
      }

      .cls-3 {
        fill: #000064;
        opacity: 0.1;
      }

      .cls-4 {
        fill: #fff;
        opacity: 0.5;
      }

      .cls-5 {
        fill: none;
        stroke: #2e4369;
        stroke-linecap: round;
        stroke-linejoin: round;
        stroke-width: 2px;
      }
    </style>
  </defs>
  <title>Asset 101</title>
  <g id="Layer_2" data-name="Layer 2">
    <g id="Layer_1-2" data-name="Layer 1">
      <g>
        <g>
          <path class="cls-1" d="M61,31A12,12,0,0,0,49,19a11.12,11.12,0,0,0-1.16.06,16,16,0,0,0-30.71,4H17a10,10,0,0,0,0,20H49.07A12,12,0,0,0,61,31Z"/>
          <path class="cls-2" d="M17.13,23a16,16,0,0,1,7.74-11.78h0A12,12,0,1,0,11.18,24.86v0A9.94,9.94,0,0,1,17,23Z"/>
          <path class="cls-3" d="M11.18,24.88A9.94,9.94,0,0,1,17,23h.13a16,16,0,0,1,7.74-11.78h0A13.48,13.48,0,0,0,24.32,9H24A16,16,0,0,0,8.13,23H8a9.76,9.76,0,0,0-1.44.12,12,12,0,0,0,4.62,1.74Z"/>
          <path class="cls-3" d="M17,26a17.52,17.52,0,0,1,.25-2.83L17,23h0a10,10,0,0,0,0,20H34A17,17,0,0,1,17,26Z"/>
          <path class="cls-4" d="M61,31A12,12,0,0,0,49,19c-.37,0-.73,0-1.09.05h-.07A16,16,0,0,0,35.72,9.24l-.53-.08-.7-.08A14.87,14.87,0,0,0,33,9c-.53,0-1.05,0-1.56.08a15.93,15.93,0,0,0-9.68,4.57A21.55,21.55,0,0,1,27,13a21.9,21.9,0,0,1,16.41,7.39c-.38.2-.75.41-1.1.64.23,0,.46,0,.69,0A15,15,0,0,1,58,36a14.83,14.83,0,0,1-.39,3.35A12,12,0,0,0,61,31ZM46.77,19.22h0Z"/>
        </g>
        <g>
          <path class="cls-5" d="M61,31A12,12,0,0,0,49,19a11.12,11.12,0,0,0-1.16.06,16,16,0,0,0-30.71,4H17a10,10,0,0,0,0,20H49.07A12,12,0,0,0,61,31Z"/>
          <path class="cls-5" d="M11.18,24.86A12,12,0,1,1,24.87,11.22"/>
        </g>
      </g>
    </g>
  </g>
</svg>
