<svg xmlns="http://www.w3.org/2000/svg" viewBox="0 0 52 57.01">
  <defs>
    <style>
      .cls-1 {
        fill: #cdf0f0;
      }

      .cls-2 {
        fill: #000064;
        opacity: 0.1;
      }

      .cls-3 {
        fill: #fff;
        opacity: 0.5;
      }

      .cls-4 {
        fill: #e6f0fa;
      }

      .cls-5 {
        fill: none;
        stroke: #2e4369;
        stroke-linecap: round;
        stroke-linejoin: round;
        stroke-width: 2px;
      }
    </style>
  </defs>
  <title>Asset 31</title>
  <g id="Layer_2" data-name="Layer 2">
    <g id="Layer_1-2" data-name="Layer 1">
      <g>
        <g>
          <path class="cls-1" d="M40.83,37A10.06,10.06,0,0,0,51,27.13a10.06,10.06,0,0,0-10.22-9.89c-.33,0-.66,0-1,.05A13.62,13.62,0,0,0,27.15,9,13.48,13.48,0,0,0,13.63,20.55h-.11A8.38,8.38,0,0,0,5,28.78,8.38,8.38,0,0,0,13.52,37Z"/>
          <path class="cls-2" d="M13,23a14.24,14.24,0,0,1,.23-2.46A8.23,8.23,0,1,0,13.52,37H27A14,14,0,0,1,13,23Z"/>
          <path class="cls-3" d="M51,27.59c0-.17,0-.34,0-.51a10.07,10.07,0,0,0-10.22-9.84c-.33,0-.66,0-1,.05,0-.06-.06-.12-.08-.19h0A14,14,0,0,0,27.1,9a13.82,13.82,0,0,0-9.21,3.53,16.79,16.79,0,0,1,17.59,6.15,10.75,10.75,0,0,0-1.82,1.54A13,13,0,0,1,49,33l.07-.09a10,10,0,0,0,1.89-5A2.81,2.81,0,0,0,51,27.59Z"/>
          <path class="cls-4" d="M13.63,20.55A13.2,13.2,0,0,1,21,10.44h0A10,10,0,0,0,11,1c-.26,0-.5.06-.75.08A6.8,6.8,0,0,1,10.89,4a7,7,0,0,1-7,7,7,7,0,0,1-2.83-.61c0,.22-.06.42-.06.64a10,10,0,0,0,9.69,10h0a8.84,8.84,0,0,1,2.83-.47Z"/>
          <path class="cls-2" d="M10.69,21a8.84,8.84,0,0,1,2.83-.47h.11A13.2,13.2,0,0,1,21,10.44h0a9.41,9.41,0,0,0-.42-2.33A13.41,13.41,0,0,0,8.63,19.55H8.52a9,9,0,0,0-2.22.29A10,10,0,0,0,10.69,21Z"/>
          <circle class="cls-1" cx="12" cy="46.01" r="2"/>
          <circle class="cls-1" cx="28" cy="46.01" r="2"/>
          <circle class="cls-1" cx="44" cy="46.01" r="2"/>
          <circle class="cls-1" cx="36" cy="54.01" r="2"/>
          <circle class="cls-1" cx="20" cy="54.01" r="2"/>
        </g>
        <g>
          <path class="cls-5" d="M40.84,37A10.07,10.07,0,0,0,51,27.12a10.06,10.06,0,0,0-10.22-9.89c-.33,0-.66,0-1,.05A13.62,13.62,0,0,0,27.15,9,13.48,13.48,0,0,0,13.63,20.54h-.11A8.38,8.38,0,0,0,5,28.76,8.38,8.38,0,0,0,13.52,37Z"/>
          <path class="cls-5" d="M21,10.43A10,10,0,0,0,11,1c-.26,0-.5.06-.75.08A6.8,6.8,0,0,1,10.89,4a7,7,0,0,1-7,7,6.88,6.88,0,0,1-2.83-.61c0,.22-.06.42-.06.64a10,10,0,0,0,9.69,10"/>
          <circle class="cls-5" cx="12" cy="46.01" r="2"/>
          <circle class="cls-5" cx="28" cy="46.01" r="2"/>
          <circle class="cls-5" cx="44" cy="46.01" r="2"/>
          <circle class="cls-5" cx="36" cy="54.01" r="2"/>
          <circle class="cls-5" cx="20" cy="54.01" r="2"/>
        </g>
      </g>
    </g>
  </g>
</svg>
