<svg xmlns="http://www.w3.org/2000/svg" viewBox="0 0 62.01 51.99">
  <defs>
    <style>
      .cls-1 {
        fill: #cdf0f0;
      }

      .cls-2 {
        fill: #000064;
        opacity: 0.1;
      }

      .cls-3 {
        fill: #fff;
        opacity: 0.5;
      }

      .cls-4 {
        fill: #e6f0fa;
      }

      .cls-5 {
        fill: none;
        stroke: #2e4369;
        stroke-linecap: round;
        stroke-linejoin: round;
        stroke-width: 2px;
      }
    </style>
  </defs>
  <title>Asset 53</title>
  <g id="Layer_2" data-name="Layer 2">
    <g id="Layer_1-2" data-name="Layer 1">
      <g>
        <g>
          <path class="cls-1" d="M42.51,20H42.1a13.58,13.58,0,0,0-25.72,3.79,8.69,8.69,0,0,0-2.57-.39,8.8,8.8,0,1,0,0,17.59h28.7a10.5,10.5,0,0,0,0-21Z"/>
          <path class="cls-2" d="M16,26.49a14.55,14.55,0,0,1,.26-2.74,8.66,8.66,0,0,0-2.46-.36,8.8,8.8,0,1,0,0,17.59H30.39A14.5,14.5,0,0,1,16,26.49Z"/>
          <path class="cls-3" d="M53,30.49A10.5,10.5,0,0,0,42.51,20H42.1a13.6,13.6,0,0,0-12.29-7.8A13.45,13.45,0,0,0,23,14c.33,0,.67,0,1,0a17,17,0,0,1,13.81,7.12,10.47,10.47,0,0,0-3.09,2.35A11.82,11.82,0,0,1,38,23,12,12,0,0,1,50,35a11.82,11.82,0,0,1-.47,3.28A10.44,10.44,0,0,0,53,30.49Z"/>
          <path class="cls-4" d="M25,11.8A12,12,0,0,0,13,1c-.24,0-.47,0-.7,0A8.6,8.6,0,0,1,4.44,13a8.54,8.54,0,0,1-3.4-.7c0,.23,0,.46,0,.7a12,12,0,0,0,8.5,11.5h0a8.7,8.7,0,0,1,6.88-.75,13.6,13.6,0,0,1,8.5-10.67h0A4.92,4.92,0,0,0,25,11.8Z"/>
          <path class="cls-2" d="M9.5,24.54a8.7,8.7,0,0,1,6.88-.75,13.6,13.6,0,0,1,8.5-10.67h0a3.28,3.28,0,0,0,.12-.88c-.39,0-.79-.05-1.19-.05A13.58,13.58,0,0,0,10.38,23.78a8.69,8.69,0,0,0-2.57-.39,7.34,7.34,0,0,0-.81.05,11.9,11.9,0,0,0,2.5,1.09Z"/>
        </g>
        <g>
          <path class="cls-5" d="M9.5,24.53A12,12,0,0,1,1,13c0-.24,0-.47,0-.7a8.54,8.54,0,0,0,3.4.7A8.6,8.6,0,0,0,12.33,1c.23,0,.46,0,.7,0A12,12,0,0,1,25,11.8a4.92,4.92,0,0,1-.12,1.32"/>
          <path class="cls-5" d="M53,27a4,4,0,0,1,4,4h0a4,4,0,0,1-4,4H47"/>
          <path class="cls-5" d="M57,49a4,4,0,0,0,4-4h0a4,4,0,0,0-4-4H47"/>
          <path class="cls-5" d="M48.21,21.85a10.3,10.3,0,0,0-5.6-1.64l-.4,0a13.58,13.58,0,0,0-25.83,3.56A8.79,8.79,0,1,0,13.81,41H36a5,5,0,0,1,5,5h0a5,5,0,0,1-5,5"/>
          <path class="cls-5" d="M22.33,33H39a4,4,0,0,0,4-4h0a4,4,0,0,0-4-4"/>
        </g>
      </g>
    </g>
  </g>
</svg>
