<svg xmlns="http://www.w3.org/2000/svg" viewBox="0 0 62 50.11">
  <defs>
    <style>
      .cls-1 {
        fill: #e6f0fa;
      }

      .cls-2 {
        fill: #000064;
        opacity: 0.15;
      }

      .cls-3 {
        fill: none;
        stroke: #2e4369;
        stroke-linecap: round;
        stroke-linejoin: round;
        stroke-width: 2px;
      }
    </style>
  </defs>
  <title>Asset 55</title>
  <g id="Layer_2" data-name="Layer 2">
    <g id="Layer_1-2" data-name="Layer 1">
      <g>
        <g>
          <path class="cls-1" d="M30.42,1.18a11.63,11.63,0,0,1,1.32,5.38,11.71,11.71,0,0,1-16.56,10.7A14,14,0,1,0,30.42,1.18Z"/>
          <path class="cls-2" d="M30,22.11a13.92,13.92,0,0,1-9.58-3.82l-.43,0a11.74,11.74,0,0,1-4.81-1A14,14,0,0,0,43,15.11c0-.53,0-1-.09-1.56A14,14,0,0,1,30,22.11Z"/>
        </g>
        <g>
          <path class="cls-3" d="M41.84,9.39A14.12,14.12,0,0,0,30.34,1,11.74,11.74,0,0,1,15,17.19,14.07,14.07,0,0,0,28.92,29.11"/>
          <path class="cls-3" d="M55,21.11a4,4,0,0,1,4,4h0a4,4,0,0,1-4,4H49"/>
          <path class="cls-3" d="M57,45.11a4,4,0,0,0,4-4h0a4,4,0,0,0-4-4H45"/>
          <path class="cls-3" d="M1,37.11H33a6,6,0,0,1,6,6h0a6,6,0,0,1-6,6"/>
          <path class="cls-3" d="M1,29.11H37a6,6,0,0,0,6-6h0a6,6,0,0,0-6-6"/>
        </g>
      </g>
    </g>
  </g>
</svg>
