<svg xmlns="http://www.w3.org/2000/svg" viewBox="0 0 52 54.96">
  <defs>
    <style>
      .cls-1 {
        fill: #cdf0f0;
      }

      .cls-2 {
        fill: #000064;
        opacity: 0.1;
      }

      .cls-3 {
        fill: #fff;
        opacity: 0.5;
      }

      .cls-4 {
        fill: #e6f0fa;
      }

      .cls-5 {
        fill: #ff6;
      }

      .cls-6 {
        fill: none;
        stroke: #2e4369;
        stroke-linecap: round;
        stroke-linejoin: round;
        stroke-width: 2px;
      }
    </style>
  </defs>
  <title>Asset 37</title>
  <g id="Layer_2" data-name="Layer 2">
    <g id="Layer_1-2" data-name="Layer 1">
      <g>
        <g>
          <path class="cls-1" d="M40.83,37A10.06,10.06,0,0,0,51,27.08,10.05,10.05,0,0,0,40.78,17.2a8.21,8.21,0,0,0-1,.05A13.62,13.62,0,0,0,27.15,9,13.48,13.48,0,0,0,13.63,20.5h-.11a8.24,8.24,0,1,0,0,16.47Z"/>
          <path class="cls-2" d="M13,23a14.24,14.24,0,0,1,.23-2.46A8.23,8.23,0,1,0,13.52,37H27A14,14,0,0,1,13,23Z"/>
          <path class="cls-3" d="M51,27.54,51,27A10.06,10.06,0,0,0,40.78,17.2a8.21,8.21,0,0,0-1,.05c0-.07-.06-.13-.08-.19h0A14,14,0,0,0,27.1,9a13.81,13.81,0,0,0-9.21,3.52,16.78,16.78,0,0,1,17.59,6.16,10.25,10.25,0,0,0-1.82,1.53A13.85,13.85,0,0,1,36,20a13,13,0,0,1,13,13l.07-.09a10,10,0,0,0,1.89-5A2.71,2.71,0,0,0,51,27.54Z"/>
          <path class="cls-4" d="M13.63,20.5A13.23,13.23,0,0,1,21,10.39h0A10,10,0,0,0,11,1c-.26,0-.5.06-.75.08a7,7,0,0,1,.64,2.89,7,7,0,0,1-7,7,6.88,6.88,0,0,1-2.83-.61c0,.22-.06.42-.06.64a10,10,0,0,0,9.69,10h0a8.58,8.58,0,0,1,2.83-.48Z"/>
          <path class="cls-2" d="M10.69,21a8.58,8.58,0,0,1,2.83-.48h.11A13.23,13.23,0,0,1,21,10.39h0a9.49,9.49,0,0,0-.42-2.33A13.41,13.41,0,0,0,8.63,19.5H8.52a9,9,0,0,0-2.22.29A10,10,0,0,0,10.69,21Z"/>
          <polygon class="cls-5" points="32.73 23.96 18 39.96 25.46 39.96 22.21 53.96 38 36.96 30.63 36.96 32.73 23.96"/>
        </g>
        <path class="cls-6" d="M38,37h3a9.87,9.87,0,0,0,10-9.84,10.06,10.06,0,0,0-10.22-9.89c-.33,0-.66,0-1,.05A13.62,13.62,0,0,0,27.15,9,13.48,13.48,0,0,0,13.63,20.54h-.11A8.38,8.38,0,0,0,5,28.77C5,33.31,9.29,37,14,37h6.76"/>
        <path class="cls-6" d="M21,10.43A10,10,0,0,0,11,1c-.26,0-.5.06-.75.08A7,7,0,0,1,10.89,4a7,7,0,0,1-7,7,7,7,0,0,1-2.83-.61c0,.22-.06.42-.06.64a10,10,0,0,0,9.69,10"/>
        <polygon class="cls-6" points="32.73 23.96 18 39.96 25.46 39.96 22.21 53.96 38 36.96 30.63 36.96 32.73 23.96"/>
      </g>
    </g>
  </g>
</svg>
