<svg xmlns="http://www.w3.org/2000/svg" viewBox="0 0 60.01 61.94">
  <defs>
    <style>
      .cls-1 {
        fill: #cdf0f0;
      }

      .cls-2 {
        fill: #000064;
        opacity: 0.1;
      }

      .cls-3 {
        fill: #fff;
        opacity: 0.5;
      }

      .cls-4 {
        fill: #fc0;
      }

      .cls-5 {
        fill: #ff6;
      }

      .cls-6 {
        fill: none;
        stroke: #2e4369;
        stroke-linecap: round;
        stroke-linejoin: round;
        stroke-width: 2px;
      }
    </style>
  </defs>
  <title>Asset 42</title>
  <g id="Layer_2" data-name="Layer 2">
    <g id="Layer_1-2" data-name="Layer 1">
      <g>
        <g>
          <path class="cls-1" d="M49,22.94a13,13,0,0,0-25,4.1,9.28,9.28,0,0,0-1.06-.1,8,8,0,0,0,0,16H49a10,10,0,0,0,0-20Z"/>
          <path class="cls-2" d="M24,28.94a14.44,14.44,0,0,1,.14-1.87L24.07,27v0a9.28,9.28,0,0,0-1.06-.1,8,8,0,0,0,0,16H38A14,14,0,0,1,24,28.94Z"/>
          <path class="cls-3" d="M45.17,23.71a10.09,10.09,0,0,0-3.52,2.46A12.16,12.16,0,0,1,44,25.94,12,12,0,0,1,55.77,40.28,10,10,0,0,0,49.65,23h0q-.32,0-.63,0a13,13,0,0,0-20.76-4.59A17.71,17.71,0,0,1,32,17.94,17.9,17.9,0,0,1,45.17,23.71Z"/>
          <path class="cls-4" d="M23,26.94a7.32,7.32,0,0,1,1.06.11,13,13,0,0,1,6.09-10.14h0A10,10,0,1,0,16.72,30h0A8,8,0,0,1,23,26.94Z"/>
          <path class="cls-2" d="M16.72,30h0A8,8,0,0,1,23,26.94a7.32,7.32,0,0,1,1.06.11,13,13,0,0,1,6.09-10.14h0a9.53,9.53,0,0,0-.94-1.65A13,13,0,0,0,19.07,27a9.28,9.28,0,0,0-1.06-.1A7.94,7.94,0,0,0,14,28,9.89,9.89,0,0,0,16.72,30Z"/>
          <polygon class="cls-5" points="41.74 29.94 27 45.94 34.47 45.94 31.21 59.94 47 42.94 39.63 42.94 41.74 29.94"/>
        </g>
        <g>
          <line class="cls-6" x1="12.53" y1="59.43" x2="11.31" y2="60.94"/>
          <line class="cls-6" x1="21" y1="48.99" x2="16.63" y2="54.3"/>
          <line class="cls-6" x1="44.98" y1="56.53" x2="41.44" y2="60.94"/>
          <line class="cls-6" x1="51.01" y1="48.99" x2="49.41" y2="50.99"/>
          <path class="cls-6" d="M16.73,30A10,10,0,1,1,30.16,17"/>
          <line class="cls-6" x1="21.01" y1="1" x2="21.01" y2="5.02"/>
          <line class="cls-6" x1="5.02" y1="21.01" x2="1" y2="21.01"/>
          <line class="cls-6" x1="7.45" y1="7.45" x2="9.7" y2="9.7"/>
          <line class="cls-6" x1="34.57" y1="7.45" x2="32.32" y2="9.7"/>
          <line class="cls-6" x1="9.7" y1="32.31" x2="7.45" y2="34.57"/>
          <path class="cls-6" d="M47,42.94h2A10,10,0,1,0,49,23a13,13,0,0,0-25,4.1A9.28,9.28,0,0,0,23,27a8,8,0,1,0,0,16h6.76"/>
          <polygon class="cls-6" points="41.74 29.94 27 45.94 34.47 45.94 31.21 59.94 47 42.94 39.63 42.94 41.74 29.94"/>
        </g>
      </g>
    </g>
  </g>
</svg>
