<svg xmlns="http://www.w3.org/2000/svg" viewBox="0 0 62.01 57.99">
  <defs>
    <style>
      .cls-1 {
        fill: #cdf0f0;
      }

      .cls-2 {
        fill: #fc0;
      }

      .cls-3 {
        fill: #000064;
        opacity: 0.1;
      }

      .cls-4 {
        fill: #fff;
        opacity: 0.5;
      }

      .cls-5 {
        fill: none;
        stroke: #2e4369;
        stroke-linecap: round;
        stroke-linejoin: round;
        stroke-width: 2px;
      }
    </style>
  </defs>
  <title>Asset 88</title>
  <g id="Layer_2" data-name="Layer 2">
    <g id="Layer_1-2" data-name="Layer 1">
      <g>
        <g>
          <path class="cls-1" d="M59,41a10,10,0,0,0-8-16,13,13,0,0,0-25,4.11A7.18,7.18,0,0,0,25,29a8,8,0,0,0-8,8,7.88,7.88,0,0,0,1.08,4Z"/>
          <path class="cls-2" d="M25,29a7.18,7.18,0,0,1,1.05.11A13,13,0,0,1,32.16,19,10,10,0,1,0,18.75,32,8,8,0,0,1,25,29Z"/>
          <path class="cls-3" d="M18.75,32A8,8,0,0,1,25,29a7.18,7.18,0,0,1,1.05.11A13,13,0,0,1,32.16,19a10,10,0,0,0-.94-1.66A13,13,0,0,0,21.07,29.11,7.18,7.18,0,0,0,20,29a7.93,7.93,0,0,0-4,1.09A9.89,9.89,0,0,0,18.75,32Z"/>
          <path class="cls-3" d="M30.22,41A13.93,13.93,0,0,1,26,31a12.73,12.73,0,0,1,.14-1.86l-.07-.07v0A7.18,7.18,0,0,0,25,29a8,8,0,0,0-8,8,7.88,7.88,0,0,0,1.08,4Z"/>
          <path class="cls-4" d="M58,40c0,.34,0,.67,0,1h1a10,10,0,0,0-7.33-16h0c-.2,0-.41,0-.62,0a13,13,0,0,0-20.76-4.58A17.71,17.71,0,0,1,34,20a17.9,17.9,0,0,1,13.17,5.77,10.17,10.17,0,0,0-3.52,2.46A12,12,0,0,1,58,40Z"/>
        </g>
        <g>
          <path class="cls-5" d="M18.73,32A10,10,0,1,1,32.17,19"/>
          <line class="cls-5" x1="23.01" y1="1" x2="23.01" y2="7.02"/>
          <line class="cls-5" x1="7.02" y1="23.01" x2="1" y2="23.01"/>
          <line class="cls-5" x1="7.45" y1="7.45" x2="11.7" y2="11.7"/>
          <line class="cls-5" x1="38.57" y1="7.45" x2="34.32" y2="11.7"/>
          <line class="cls-5" x1="11.7" y1="34.32" x2="7.45" y2="38.57"/>
          <path class="cls-5" d="M61,35A10,10,0,0,0,51,25a13,13,0,0,0-25,4.1A9.28,9.28,0,0,0,25,29a8,8,0,0,0-7.75,6"/>
          <line class="cls-5" x1="17.01" y1="40.99" x2="60.93" y2="40.99"/>
          <line class="cls-5" x1="21.01" y1="48.99" x2="56.93" y2="48.99"/>
          <line class="cls-5" x1="29.02" y1="56.99" x2="52.93" y2="56.99"/>
          <line class="cls-5" x1="19.11" y1="56.99" x2="23.01" y2="56.99"/>
        </g>
      </g>
    </g>
  </g>
</svg>
