<svg xmlns="http://www.w3.org/2000/svg" viewBox="0 0 62 59.99">
  <defs>
    <style>
      .cls-1 {
        fill: #cdf0f0;
      }

      .cls-2 {
        fill: #fc0;
      }

      .cls-3 {
        fill: #000064;
        opacity: 0.1;
      }

      .cls-4 {
        fill: #fff;
        opacity: 0.5;
      }

      .cls-5 {
        fill: none;
        stroke: #2e4369;
        stroke-linecap: round;
        stroke-linejoin: round;
        stroke-width: 2px;
      }
    </style>
  </defs>
  <title>Asset 54</title>
  <g id="Layer_2" data-name="Layer 2">
    <g id="Layer_1-2" data-name="Layer 1">
      <g>
        <g>
          <path class="cls-1" d="M48.5,28h-.41a13.58,13.58,0,0,0-25.72,3.78,9,9,0,0,0-2.57-.38A8.8,8.8,0,1,0,19.8,49H48.5a10.5,10.5,0,0,0,0-21Z"/>
          <path class="cls-2" d="M22.37,31.78A13.6,13.6,0,0,1,32.7,20.57v0A10,10,0,1,0,17.91,31.61h0a8.76,8.76,0,0,1,4.46.17Z"/>
          <path class="cls-3" d="M17.91,31.61a8.76,8.76,0,0,1,4.46.17A13.6,13.6,0,0,1,32.7,20.57v0s0,0,0-.05A13.62,13.62,0,0,0,16.59,30.66a11.33,11.33,0,0,0,1.32.95Z"/>
          <path class="cls-3" d="M22,34.5a14.55,14.55,0,0,1,.27-2.74A8.79,8.79,0,1,0,19.8,49H36.38A14.49,14.49,0,0,1,22,34.5Z"/>
          <path class="cls-4" d="M59,38.5A10.5,10.5,0,0,0,48.5,28h-.41A13.56,13.56,0,0,0,29,22c.34,0,.67,0,1,0a16.93,16.93,0,0,1,13.81,7.12,10.61,10.61,0,0,0-3.09,2.34A12.2,12.2,0,0,1,44,31,12,12,0,0,1,56,43a12.2,12.2,0,0,1-.46,3.28A10.47,10.47,0,0,0,59,38.5Z"/>
        </g>
        <g>
          <path class="cls-5" d="M17.91,31.61A10,10,0,1,1,32.7,20.55"/>
          <line class="cls-5" x1="23" y1="1" x2="23" y2="7"/>
          <line class="cls-5" x1="7" y1="23" x2="1" y2="23"/>
          <line class="cls-5" x1="7" y1="7" x2="12" y2="12"/>
          <line class="cls-5" x1="39" y1="7" x2="34" y2="12"/>
          <path class="cls-5" d="M53,35a4,4,0,0,1,4,4h0a4,4,0,0,1-4,4H47"/>
          <path class="cls-5" d="M57,57a4,4,0,0,0,4-4h0a4,4,0,0,0-4-4H47"/>
          <path class="cls-5" d="M54.21,29.85a10.33,10.33,0,0,0-5.61-1.64l-.39,0a13.59,13.59,0,0,0-25.84,3.55,9,9,0,0,0-2.57-.38A8.8,8.8,0,1,0,19.8,49H36a5,5,0,0,1,5,5h0a5,5,0,0,1-5,5"/>
          <path class="cls-5" d="M28.33,41H39a4,4,0,0,0,4-4h0a4,4,0,0,0-4-4"/>
        </g>
      </g>
    </g>
  </g>
</svg>
