<svg xmlns="http://www.w3.org/2000/svg" viewBox="0 0 60 62">
  <defs>
    <style>
      .cls-1 {
        fill: #cdf0f0;
      }

      .cls-2 {
        fill: #fc0;
      }

      .cls-3 {
        fill: #000064;
        opacity: 0.1;
      }

      .cls-4 {
        fill: #fff;
        opacity: 0.5;
      }

      .cls-5 {
        fill: none;
        stroke: #2e4369;
        stroke-linecap: round;
        stroke-linejoin: round;
        stroke-width: 2px;
      }
    </style>
  </defs>
  <title>Asset 68</title>
  <g id="Layer_2" data-name="Layer 2">
    <g id="Layer_1-2" data-name="Layer 1">
      <g>
        <g>
          <path class="cls-1" d="M43.84,37A10,10,0,0,0,54,27.12a10.06,10.06,0,0,0-10.22-9.89c-.33,0-.66,0-1,.05A13.62,13.62,0,0,0,30.15,9,13.48,13.48,0,0,0,16.63,20.54h-.11A8.38,8.38,0,0,0,8,28.77,8.38,8.38,0,0,0,16.52,37Z"/>
          <path class="cls-2" d="M16.63,20.54A13.2,13.2,0,0,1,24,10.43h0A10,10,0,1,0,13.69,21h0a8.73,8.73,0,0,1,2.82-.47Z"/>
          <path class="cls-3" d="M13.7,21a8.73,8.73,0,0,1,2.82-.47h.11A13.2,13.2,0,0,1,24,10.43h0a8.57,8.57,0,0,0-.18-1.36A13.42,13.42,0,0,0,11.63,20.54h-.11l-.46,0a9.92,9.92,0,0,0,2.63.45Z"/>
          <path class="cls-3" d="M16,23a14.24,14.24,0,0,1,.23-2.46A8.23,8.23,0,1,0,16.52,37H30A14,14,0,0,1,16,23Z"/>
          <path class="cls-4" d="M54,27.58c0-.17,0-.34,0-.52a10.06,10.06,0,0,0-10.22-9.83c-.33,0-.66,0-1,.05,0-.06,0-.12-.08-.19h0A14,14,0,0,0,30.1,9a13.82,13.82,0,0,0-9.21,3.53,16.79,16.79,0,0,1,17.59,6.15,10.75,10.75,0,0,0-1.82,1.54A13,13,0,0,1,52,33l.07-.09a10,10,0,0,0,1.89-5C54,27.77,54,27.68,54,27.58Z"/>
        </g>
        <g>
          <path class="cls-5" d="M43.87,37A10,10,0,0,0,54,27.12a10.06,10.06,0,0,0-10.22-9.89c-.33,0-.66,0-1,.05A13.63,13.63,0,0,0,30.18,9,13.47,13.47,0,0,0,16.67,20.54h-.12A8.39,8.39,0,0,0,8,28.77,8.39,8.39,0,0,0,16.55,37Z"/>
          <path class="cls-5" d="M13.72,21A10,10,0,1,1,24,10.43"/>
          <line class="cls-5" x1="42" y1="45.01" x2="42" y2="61"/>
          <line class="cls-5" x1="34" y1="45.01" x2="34" y2="51"/>
          <line class="cls-5" x1="26" y1="45.01" x2="26" y2="55"/>
          <line class="cls-5" x1="18" y1="45.01" x2="18" y2="61"/>
          <path class="cls-5" d="M8,55.1A10,10,0,0,1,18,61"/>
          <path class="cls-5" d="M52,55.1A10,10,0,0,0,42,61"/>
          <line class="cls-5" x1="26" y1="61" x2="26" y2="61"/>
          <line class="cls-5" x1="34" y1="57.01" x2="34" y2="57.01"/>
          <line class="cls-5" x1="58" y1="55.01" x2="58" y2="55.01"/>
          <circle class="cls-5" cx="58" cy="55" r="1"/>
          <circle class="cls-5" cx="2" cy="55" r="1"/>
        </g>
      </g>
    </g>
  </g>
</svg>
