<svg xmlns="http://www.w3.org/2000/svg" viewBox="0 0 52 57.96">
  <defs>
    <style>
      .cls-1 {
        fill: #cdf0f0;
      }

      .cls-2 {
        fill: #fc0;
      }

      .cls-3 {
        fill: #000064;
        opacity: 0.1;
      }

      .cls-4 {
        fill: #fff;
        opacity: 0.5;
      }

      .cls-5 {
        fill: none;
        stroke: #2e4369;
        stroke-linecap: round;
        stroke-linejoin: round;
        stroke-width: 2px;
      }
    </style>
  </defs>
  <title>Asset 70</title>
  <g id="Layer_2" data-name="Layer 2">
    <g id="Layer_1-2" data-name="Layer 1">
      <g>
        <g>
          <path class="cls-1" d="M40.83,37A10.06,10.06,0,0,0,51,27.08,10.05,10.05,0,0,0,40.78,17.2a8.21,8.21,0,0,0-1,.05A13.62,13.62,0,0,0,27.15,9,13.48,13.48,0,0,0,13.63,20.5h-.11a8.24,8.24,0,1,0,0,16.47Z"/>
          <path class="cls-2" d="M13.63,20.5A13.23,13.23,0,0,1,21,10.39h0A10,10,0,1,0,10.69,21h0a8.84,8.84,0,0,1,2.83-.47Z"/>
          <path class="cls-3" d="M10.69,21a8.84,8.84,0,0,1,2.83-.47h.11A13.23,13.23,0,0,1,21,10.39h0A8.57,8.57,0,0,0,20.8,9,13.42,13.42,0,0,0,8.63,20.5H8.52l-.46,0a9.85,9.85,0,0,0,2.63.45Z"/>
          <path class="cls-3" d="M13,23a14.24,14.24,0,0,1,.23-2.46A8.23,8.23,0,1,0,13.52,37H27A14,14,0,0,1,13,23Z"/>
          <path class="cls-4" d="M51,27.54,51,27A10.06,10.06,0,0,0,40.78,17.2a8.21,8.21,0,0,0-1,.05c0-.07-.06-.13-.08-.19h0A14,14,0,0,0,27.1,9a13.81,13.81,0,0,0-9.21,3.52,16.78,16.78,0,0,1,17.59,6.16,10.25,10.25,0,0,0-1.82,1.53A13.85,13.85,0,0,1,36,20a13,13,0,0,1,13,13l.07-.09a10,10,0,0,0,1.89-5A2.71,2.71,0,0,0,51,27.54Z"/>
        </g>
        <g>
          <polyline class="cls-5" points="30.98 32.52 20.98 45.02 28.98 45.02 19.41 56.96"/>
          <path class="cls-5" d="M37,37h3.84A10.05,10.05,0,0,0,51,27.12a10.06,10.06,0,0,0-10.22-9.89c-.33,0-.66,0-1,.05A13.62,13.62,0,0,0,27.15,9,13.48,13.48,0,0,0,13.63,20.54h-.11A8.38,8.38,0,0,0,5,28.77,8.38,8.38,0,0,0,13.52,37H19"/>
          <path class="cls-5" d="M10.69,21A10,10,0,1,1,21,10.43"/>
        </g>
      </g>
    </g>
  </g>
</svg>
