<svg xmlns="http://www.w3.org/2000/svg" viewBox="0 0 62 61.99">
  <defs>
    <style>
      .cls-1 {
        fill: #fc0;
      }

      .cls-2 {
        fill: #fff;
        opacity: 0.5;
      }

      .cls-3 {
        fill: none;
        stroke: #2e4369;
        stroke-linecap: round;
        stroke-linejoin: round;
        stroke-width: 2px;
      }
    </style>
  </defs>
  <title>Asset 56</title>
  <g id="Layer_2" data-name="Layer 2">
    <g id="Layer_1-2" data-name="Layer 1">
      <g>
        <g>
          <circle class="cls-1" cx="31" cy="28" r="13"/>
          <path class="cls-2" d="M26,19A16,16,0,0,1,42,34.91,13,13,0,0,0,20.88,19.85,16.07,16.07,0,0,1,26,19Z"/>
        </g>
        <g>
          <path class="cls-3" d="M31,41A13,13,0,1,1,42.7,22.4"/>
          <line class="cls-3" x1="31" y1="1" x2="31" y2="7"/>
          <line class="cls-3" x1="11" y1="29" x2="3" y2="29"/>
          <line class="cls-3" x1="11" y1="7" x2="17" y2="13"/>
          <line class="cls-3" x1="50.91" y1="7.08" x2="45.01" y2="12.99"/>
          <path class="cls-3" d="M55,33a4,4,0,0,1,4,4h0a4,4,0,0,1-4,4H49"/>
          <path class="cls-3" d="M57,57a4,4,0,0,0,4-4h0a4,4,0,0,0-4-4H45"/>
          <path class="cls-3" d="M1,49H33a6,6,0,0,1,6,6h0a6,6,0,0,1-6,6"/>
          <path class="cls-3" d="M1,41H37a6,6,0,0,0,6-6h0a6,6,0,0,0-6-6"/>
        </g>
      </g>
    </g>
  </g>
</svg>
