<svg xmlns="http://www.w3.org/2000/svg" viewBox="0 0 66.01 61.99">
  <defs>
    <style>
      .cls-1 {
        fill: #cdf0f0;
      }

      .cls-2 {
        fill: #000064;
        opacity: 0.1;
      }

      .cls-3 {
        fill: #fff;
        opacity: 0.5;
      }

      .cls-4 {
        fill: #fc0;
      }

      .cls-5 {
        fill: none;
        stroke: #2e4369;
        stroke-linecap: round;
        stroke-linejoin: round;
        stroke-width: 2px;
      }
    </style>
  </defs>
  <title>Asset 80</title>
  <g id="Layer_2" data-name="Layer 2">
    <g id="Layer_1-2" data-name="Layer 1">
      <g>
        <g>
          <path class="cls-1" d="M49,23a13,13,0,0,0-25,4.11A7.47,7.47,0,0,0,23,27a8,8,0,1,0,0,16H49a10,10,0,0,0,0-20Z"/>
          <path class="cls-2" d="M24,29a14.28,14.28,0,0,1,.14-1.86l-.07-.07v0A7.47,7.47,0,0,0,23,27a8,8,0,1,0,0,16H38A14,14,0,0,1,24,29Z"/>
          <path class="cls-3" d="M45.18,23.77a10.09,10.09,0,0,0-3.52,2.46A12.16,12.16,0,0,1,44,26,12,12,0,0,1,55.78,40.34,10,10,0,0,0,49.66,23h0c-.21,0-.42,0-.63,0a13,13,0,0,0-20.76-4.58,17.68,17.68,0,0,1,16.91,5.36Z"/>
          <path class="cls-4" d="M23,27a9.28,9.28,0,0,1,1.06.1A13,13,0,0,1,30.16,17h0A10,10,0,1,0,16.73,30.05h0A8,8,0,0,1,23,27Z"/>
          <path class="cls-2" d="M16.73,30.05h0A8,8,0,0,1,23,27a9.28,9.28,0,0,1,1.06.1A13,13,0,0,1,30.16,17h0a10.33,10.33,0,0,0-.94-1.65A13,13,0,0,0,19.08,27.1,7.47,7.47,0,0,0,18,27a8,8,0,0,0-4,1.1A9.92,9.92,0,0,0,16.73,30.05Z"/>
        </g>
        <g>
          <g>
            <path class="cls-5" d="M16.73,30A10,10,0,1,1,30.15,17"/>
            <line class="cls-5" x1="21.01" y1="1" x2="21.01" y2="5.02"/>
            <line class="cls-5" x1="5.02" y1="21.01" x2="1" y2="21.01"/>
            <line class="cls-5" x1="7.45" y1="7.45" x2="9.7" y2="9.7"/>
            <line class="cls-5" x1="34.57" y1="7.45" x2="32.31" y2="9.7"/>
            <line class="cls-5" x1="9.7" y1="32.31" x2="7.45" y2="34.57"/>
            <path class="cls-5" d="M49,23a13,13,0,0,0-25,4.1A9.28,9.28,0,0,0,23,27a8,8,0,0,0,0,16H49a10,10,0,0,0,0-20Z"/>
          </g>
          <line class="cls-5" x1="49.01" y1="49" x2="49.01" y2="60.99"/>
          <line class="cls-5" x1="41.01" y1="49" x2="41.01" y2="50.99"/>
          <line class="cls-5" x1="33.01" y1="49" x2="33.01" y2="54.99"/>
          <line class="cls-5" x1="25.01" y1="49" x2="25.01" y2="60.99"/>
          <path class="cls-5" d="M15,55.1A10,10,0,0,1,25,61"/>
          <path class="cls-5" d="M59,55.1A10,10,0,0,0,49,61"/>
          <line class="cls-5" x1="33.01" y1="60.99" x2="33.01" y2="60.99"/>
          <line class="cls-5" x1="41.01" y1="57" x2="41.01" y2="57"/>
          <line class="cls-5" x1="65.01" y1="55" x2="65.01" y2="55"/>
          <circle class="cls-5" cx="9.01" cy="54.99" r="1"/>
        </g>
      </g>
    </g>
  </g>
</svg>
