<svg xmlns="http://www.w3.org/2000/svg" viewBox="0 0 61 62">
  <defs>
    <style>
      .cls-1 {
        fill: #cdf0f0;
      }

      .cls-2 {
        opacity: 0.5;
      }

      .cls-3 {
        fill: #fff;
      }

      .cls-4 {
        fill: none;
        stroke: #2e4369;
        stroke-linecap: round;
        stroke-linejoin: round;
        stroke-width: 2px;
      }
    </style>
  </defs>
  <title>Asset 51</title>
  <g id="Layer_2" data-name="Layer 2">
    <g id="Layer_1-2" data-name="Layer 1">
      <g>
        <g>
          <path class="cls-1" d="M56,17H54a4,4,0,0,0,0-8H52a4,4,0,0,0,0-8H4A4,4,0,0,0,4,9h8a4,4,0,0,0,0,8h7a4,4,0,0,0,0,8h5a4,4,0,0,0,0,8H22a4,4,0,0,0,0,8,4,4,0,0,0,0,8h4a4,4,0,0,0,0,8h4a4,4,0,0,0,0-8h6a4,4,0,0,0,0-8h6a4,4,0,0,0,0-8h6a4,4,0,0,0,0-8h8a4,4,0,0,0,0-8Z"/>
          <g class="cls-2">
            <path class="cls-3" d="M19,17h2a4,4,0,0,1,0-8h2a4,4,0,0,1,0-8H52a4,4,0,0,1,0,8H44a4,4,0,0,1,0,8H37a4,4,0,0,1,0,8H32a4,4,0,0,1,0,8h2a4,4,0,0,1,0,8,4,4,0,0,1,0,8H27a4,4,0,0,1,0-8H26a4,4,0,0,1,0-8H24a4,4,0,0,1,0-8H19a4,4,0,0,1,0-8Z"/>
            <circle class="cls-3" cx="30" cy="53" r="4"/>
          </g>
        </g>
        <g>
          <path class="cls-4" d="M4,1H52a4,4,0,0,1,4,4h0a4,4,0,0,1-4,4H12a4,4,0,0,0-4,4H8a4,4,0,0,0,4,4H56a4,4,0,0,1,4,4h0a4,4,0,0,1-4,4H24a4,4,0,0,0-4,4h0a4,4,0,0,0,4,4H42a4,4,0,0,1,4,4h0a4,4,0,0,1-4,4H22a4,4,0,0,0-4,4h0a4,4,0,0,0,4,4h8a4,4,0,0,1,4,4h0a4,4,0,0,1-4,4"/>
          <path class="cls-4" d="M26,61h0a4,4,0,0,1,4-4"/>
        </g>
      </g>
    </g>
  </g>
</svg>
