<svg xmlns="http://www.w3.org/2000/svg" viewBox="0 0 54.82 61.98">
  <defs>
    <style>
      .cls-1 {
        fill: #cdf0f0;
      }

      .cls-2 {
        fill: #000064;
        opacity: 0.1;
      }

      .cls-3 {
        fill: #fff;
        opacity: 0.5;
      }

      .cls-4 {
        fill: #e6f0fa;
      }

      .cls-5 {
        fill: none;
        stroke: #2e4369;
        stroke-linecap: round;
        stroke-linejoin: round;
        stroke-width: 2px;
      }
    </style>
  </defs>
  <title>Asset 61</title>
  <g id="Layer_2" data-name="Layer 2">
    <g id="Layer_1-2" data-name="Layer 1">
      <g>
        <g>
          <path class="cls-1" d="M43.65,37a10.06,10.06,0,0,0,10.17-9.88A10.06,10.06,0,0,0,43.6,17.23c-.34,0-.66,0-1,.05A13.62,13.62,0,0,0,30,9,13.48,13.48,0,0,0,16.45,20.54h-.11a8.38,8.38,0,0,0-8.52,8.24A8.38,8.38,0,0,0,16.34,37Z"/>
          <path class="cls-2" d="M15.82,23a13.32,13.32,0,0,1,.23-2.46A8.23,8.23,0,1,0,16.34,37H29.82A14,14,0,0,1,15.82,23Z"/>
          <path class="cls-3" d="M53.79,27.58c0-.17,0-.34,0-.52A10,10,0,0,0,43.6,17.23c-.34,0-.66,0-1,.05,0-.06-.06-.12-.08-.19h0A14,14,0,0,0,29.92,9a13.82,13.82,0,0,0-9.21,3.53A16.79,16.79,0,0,1,38.3,18.68a10.75,10.75,0,0,0-1.82,1.54A13,13,0,0,1,51.82,33l.07-.09a10,10,0,0,0,1.89-5A2.81,2.81,0,0,0,53.79,27.58Z"/>
          <path class="cls-4" d="M16.45,20.54A13.21,13.21,0,0,1,23.8,10.43h0A10,10,0,0,0,13.82,1c-.26,0-.5.06-.75.08A7,7,0,0,1,6.71,11a7,7,0,0,1-2.83-.61c0,.22-.06.42-.06.64a10,10,0,0,0,9.69,10h0a8.79,8.79,0,0,1,2.83-.47Z"/>
          <path class="cls-2" d="M13.51,21a8.79,8.79,0,0,1,2.83-.47h.11A13.21,13.21,0,0,1,23.8,10.43h0a9.89,9.89,0,0,0-.42-2.33A13.41,13.41,0,0,0,11.45,19.54h-.11a9,9,0,0,0-2.22.29A10,10,0,0,0,13.51,21Z"/>
        </g>
        <g>
          <polyline class="cls-5" points="33.8 32.5 23.8 45 31.8 45 22.23 56.94"/>
          <path class="cls-5" d="M39.82,37h3.83A10.06,10.06,0,0,0,53.82,27.1,10.06,10.06,0,0,0,43.6,17.21c-.34,0-.66,0-1,.05A13.62,13.62,0,0,0,30,9,13.48,13.48,0,0,0,16.45,20.52h-.11a8.38,8.38,0,0,0-8.52,8.23A8.38,8.38,0,0,0,16.34,37h5.48"/>
          <line class="cls-5" x1="3.81" y1="57.47" x2="1" y2="60.98"/>
          <line class="cls-5" x1="13.81" y1="44.98" x2="7.91" y2="52.34"/>
          <line class="cls-5" x1="39.79" y1="52.52" x2="33.01" y2="60.98"/>
          <line class="cls-5" x1="45.82" y1="44.98" x2="44.22" y2="46.98"/>
          <path class="cls-5" d="M23.8,10.43A10,10,0,0,0,13.82,1c-.26,0-.5.06-.75.08A7,7,0,0,1,6.71,11a7,7,0,0,1-2.83-.61c0,.22-.06.42-.06.64a10,10,0,0,0,9.69,10"/>
        </g>
      </g>
    </g>
  </g>
</svg>
