<svg xmlns="http://www.w3.org/2000/svg" viewBox="0 0 62 57.94">
  <defs>
    <style>
      .cls-1 {
        fill: #cdf0f0;
      }

      .cls-2 {
        fill: #000064;
        opacity: 0.1;
      }

      .cls-3 {
        fill: #fff;
        opacity: 0.5;
      }

      .cls-4 {
        fill: none;
        stroke: #2e4369;
        stroke-linecap: round;
        stroke-linejoin: round;
        stroke-width: 2px;
      }
    </style>
  </defs>
  <title>Asset 91</title>
  <g id="Layer_2" data-name="Layer 2">
    <g id="Layer_1-2" data-name="Layer 1">
      <g>
        <g>
          <path class="cls-1" d="M48,10.94c-.17,0-.33,0-.5,0a17,17,0,0,0-32.29,4.45A11,11,0,1,0,12,36.94H48a13,13,0,1,0,0-26Z"/>
          <path class="cls-2" d="M15,18.94a18.09,18.09,0,0,1,.34-3.48l-.16-.05A11.12,11.12,0,0,0,12,14.94a11,11,0,0,0,0,22H33A18,18,0,0,1,15,18.94Z"/>
          <path class="cls-3" d="M61,23.94a13,13,0,0,0-13-13c-.17,0-.33,0-.5,0A17,17,0,0,0,35.17,1.24c-.39-.07-.78-.14-1.18-.18l-.25,0A16.75,16.75,0,0,0,32,.94a17.38,17.38,0,0,0-3.17.29,16.86,16.86,0,0,0-8.26,4.15A22.87,22.87,0,0,1,42,12.44a13.07,13.07,0,0,0-4.16,3.44A15,15,0,0,1,58,29.94a14.34,14.34,0,0,1-.24,2.56A12.93,12.93,0,0,0,61,23.94Z"/>
        </g>
        <g>
          <path class="cls-4" d="M41,37h7a13,13,0,0,0,0-26c-.17,0-.33,0-.5,0a17,17,0,0,0-32.29,4.45A11,11,0,1,0,12,37h9"/>
          <line class="cls-4" x1="14.99" y1="45" x2="8.64" y2="53"/>
          <polyline class="cls-4" points="35 32.5 25 45 33 45 23.43 56.94"/>
          <line class="cls-4" x1="47" y1="45" x2="40.64" y2="52.95"/>
        </g>
      </g>
    </g>
  </g>
</svg>
