<svg xmlns="http://www.w3.org/2000/svg" viewBox="0 0 62 62">
  <defs>
    <style>
      .cls-1 {
        fill: #cdf0f0;
      }

      .cls-2 {
        fill: #000064;
        opacity: 0.1;
      }

      .cls-3 {
        fill: #fff;
        opacity: 0.5;
      }

      .cls-4 {
        fill: none;
        stroke: #2e4369;
        stroke-linecap: round;
        stroke-linejoin: round;
        stroke-width: 2px;
      }
    </style>
  </defs>
  <title>Asset 66</title>
  <g id="Layer_2" data-name="Layer 2">
    <g id="Layer_1-2" data-name="Layer 1">
      <g>
        <g>
          <path class="cls-1" d="M48,11c-.17,0-.33,0-.5,0a17,17,0,0,0-32.29,4.45A11,11,0,1,0,12,37H48a13,13,0,0,0,0-26Z"/>
          <path class="cls-2" d="M15,19a18.09,18.09,0,0,1,.34-3.48l-.16,0A10.78,10.78,0,0,0,12,15a11,11,0,0,0,0,22H33A18,18,0,0,1,15,19Z"/>
          <path class="cls-3" d="M61,24A13,13,0,0,0,48,11c-.17,0-.33,0-.5,0A17,17,0,0,0,35.17,1.3c-.39-.07-.78-.14-1.18-.18l-.25,0A16.61,16.61,0,0,0,32,1a17.47,17.47,0,0,0-3.17.29,16.82,16.82,0,0,0-8.26,4.15A22.87,22.87,0,0,1,42,12.5a13.17,13.17,0,0,0-4.16,3.44A15,15,0,0,1,58,30a15.33,15.33,0,0,1-.23,2.56A13,13,0,0,0,61,24Z"/>
        </g>
        <g>
          <line class="cls-4" x1="14" y1="45" x2="7.6" y2="53"/>
          <line class="cls-4" x1="26" y1="45" x2="13.19" y2="61"/>
          <g>
            <line class="cls-4" x1="38" y1="47.11" x2="34" y2="47.11"/>
            <line class="cls-4" x1="36" y1="49.11" x2="36" y2="45.11"/>
          </g>
          <g>
            <line class="cls-4" x1="32" y1="57" x2="28" y2="57"/>
            <line class="cls-4" x1="30" y1="59" x2="30" y2="55"/>
          </g>
          <g>
            <line class="cls-4" x1="43" y1="55" x2="43" y2="59"/>
            <line class="cls-4" x1="45" y1="57" x2="41" y2="57"/>
          </g>
          <g>
            <line class="cls-4" x1="50" y1="45.11" x2="50" y2="49.11"/>
            <line class="cls-4" x1="52" y1="47.11" x2="48" y2="47.11"/>
          </g>
          <path class="cls-4" d="M48,11c-.17,0-.33,0-.5,0a17,17,0,0,0-32.29,4.45A11,11,0,1,0,12,37H48a13,13,0,0,0,0-26Z"/>
        </g>
      </g>
    </g>
  </g>
</svg>
