<svg xmlns="http://www.w3.org/2000/svg" viewBox="0 0 60.04 50">
  <defs>
    <style>
      .cls-1 {
        fill: #cdf0f0;
      }

      .cls-2 {
        fill: #e6f0fa;
      }

      .cls-3 {
        fill: #000064;
        opacity: 0.1;
      }

      .cls-4 {
        fill: #fff;
        opacity: 0.5;
      }

      .cls-5 {
        fill: none;
        stroke: #2e4369;
        stroke-linecap: round;
        stroke-linejoin: round;
        stroke-width: 2px;
      }
    </style>
  </defs>
  <title>Asset 87</title>
  <g id="Layer_2" data-name="Layer 2">
    <g id="Layer_1-2" data-name="Layer 1">
      <g>
        <g>
          <path class="cls-1" d="M58.82,33A11.93,11.93,0,0,0,47,19a10.93,10.93,0,0,0-1.15.06,16,16,0,0,0-30.72,4H15A10,10,0,0,0,5,33H58.82Z"/>
          <path class="cls-2" d="M13,1c-.24,0-.47,0-.7,0A8.59,8.59,0,0,1,4.44,13a8.54,8.54,0,0,1-3.4-.7c0,.23,0,.46,0,.7A12,12,0,0,0,9.64,24.58h0A9.91,9.91,0,0,1,15,23l.13,0a16,16,0,0,1,9.58-12.72h0A12,12,0,0,0,13,1Z"/>
          <path class="cls-3" d="M9.65,24.58A9.91,9.91,0,0,1,15,23l.13,0a16,16,0,0,1,9.58-12.72h0a11.7,11.7,0,0,0-.36-1.19A16,16,0,0,0,10.13,23H10a10.09,10.09,0,0,0-3,.45,11.52,11.52,0,0,0,2.62,1.13Z"/>
          <path class="cls-3" d="M16.52,33A16.89,16.89,0,0,1,15,26a17.52,17.52,0,0,1,.25-2.83L15,23h0A10,10,0,0,0,5,33Z"/>
          <path class="cls-4" d="M55.7,33h3.12A11.93,11.93,0,0,0,47,19c-.37,0-.73,0-1.09.05h-.06A16,16,0,0,0,33.72,9.24l-.53-.08-.7-.08A14.72,14.72,0,0,0,31,9c-.53,0-1.05,0-1.56.08a15.93,15.93,0,0,0-9.68,4.57A21.55,21.55,0,0,1,25,13a21.88,21.88,0,0,1,16.41,7.39c-.37.2-.74.41-1.1.64.23,0,.46,0,.69,0A15,15,0,0,1,55.7,33Z"/>
        </g>
        <g>
          <path class="cls-5" d="M24.75,10.28A12,12,0,0,0,13,1c-.24,0-.47,0-.7,0A8.59,8.59,0,0,1,4.44,13a8.54,8.54,0,0,1-3.4-.7c0,.23,0,.46,0,.7A12,12,0,0,0,9.64,24.58"/>
          <path class="cls-5" d="M58.36,27A12,12,0,0,0,47,19a11.12,11.12,0,0,0-1.16.06,16,16,0,0,0-30.71,4L15,23a10,10,0,0,0-8,4"/>
          <g>
            <line class="cls-5" x1="5.04" y1="33" x2="59.04" y2="33"/>
            <line class="cls-5" x1="9.04" y1="41" x2="53.03" y2="41"/>
            <line class="cls-5" x1="17.04" y1="49" x2="49.03" y2="49"/>
            <line class="cls-5" x1="7.14" y1="49" x2="11.04" y2="49"/>
          </g>
        </g>
      </g>
    </g>
  </g>
</svg>
