<svg xmlns="http://www.w3.org/2000/svg" viewBox="0 0 62 41.24">
  <defs>
    <style>
      .cls-1 {
        fill: #cdf0f0;
      }

      .cls-2 {
        fill: none;
        stroke: #2e4369;
        stroke-linecap: round;
        stroke-linejoin: round;
        stroke-width: 2px;
      }
    </style>
  </defs>
  <title>Asset 24</title>
  <g id="Layer_2" data-name="Layer 2">
    <g id="Layer_1-2" data-name="Layer 1">
      <g>
        <g>
          <path class="cls-1" d="M18.39,15.78a24,24,0,0,1-16.53-7A3,3,0,0,1,6.14,4.6C7.2,5.67,16.84,14.84,29.25,5.93c16.23-11.64,29.43.8,30.88,2.26a3,3,0,0,1-4.26,4.23C54.11,10.65,44.7,2.24,32.75,10.81A24.42,24.42,0,0,1,18.39,15.78Z"/>
          <path class="cls-1" d="M18.87,27.47a23.11,23.11,0,0,1-8.8-1.79,3,3,0,0,1,2.26-5.56c5.81,2.37,11.51,1.6,16.92-2.28,13.28-9.53,25.66-3.2,30.88,2.05a3,3,0,0,1-4.26,4.23C54.8,23,45.07,13.88,32.75,22.72A23.63,23.63,0,0,1,18.87,27.47Z"/>
          <path class="cls-1" d="M18.65,40.24A24.39,24.39,0,0,1,1.86,33.11,3,3,0,0,1,6.14,28.9C7.21,30,17,39.3,29.25,30.5c9.11-6.53,17.36-5.33,22.68-3.18a3,3,0,1,1-2.26,5.56c-5.7-2.31-11.39-1.47-16.92,2.5A23.93,23.93,0,0,1,18.65,40.24Z"/>
        </g>
        <g>
          <path class="cls-2" d="M18.39,15.78a24,24,0,0,1-16.53-7A3,3,0,0,1,6.14,4.6C7.2,5.67,16.84,14.84,29.25,5.93c16.23-11.64,29.43.8,30.88,2.26a3,3,0,0,1-4.26,4.23C54.11,10.65,44.7,2.24,32.75,10.81A24.42,24.42,0,0,1,18.39,15.78Z"/>
          <path class="cls-2" d="M18.87,27.47a23.11,23.11,0,0,1-8.8-1.79,3,3,0,0,1,2.26-5.56c5.81,2.37,11.51,1.6,16.92-2.28,13.28-9.53,25.66-3.2,30.88,2.05a3,3,0,0,1-4.26,4.23C54.8,23,45.07,13.88,32.75,22.72A23.63,23.63,0,0,1,18.87,27.47Z"/>
          <path class="cls-2" d="M18.65,40.24A24.39,24.39,0,0,1,1.86,33.11,3,3,0,0,1,6.14,28.9C7.21,30,17,39.3,29.25,30.5c9.11-6.53,17.36-5.33,22.68-3.18a3,3,0,1,1-2.26,5.56c-5.7-2.31-11.39-1.47-16.92,2.5A23.93,23.93,0,0,1,18.65,40.24Z"/>
        </g>
      </g>
    </g>
  </g>
</svg>
