<?xml version="1.0" encoding="utf-8"?>
<!-- Generator: Adobe Illustrator 22.0.1, SVG Export Plug-In . SVG Version: 6.00 Build 0)  -->
<svg version="1.1" id="Layer_1" xmlns="http://www.w3.org/2000/svg" xmlns:xlink="http://www.w3.org/1999/xlink" x="0px" y="0px"
	 viewBox="0 0 62 48" style="enable-background:new 0 0 62 48;" xml:space="preserve">
<style type="text/css">
	.st0{fill:#CDF0F0;}
	.st1{opacity:0.5;fill:#FFFFFF;enable-background:new    ;}
	.st2{opacity:0.1;fill:#000064;enable-background:new    ;}
	.st3{fill:none;stroke:#2E4369;stroke-width:2;stroke-linecap:round;stroke-linejoin:round;}
</style>
<title>Asset 22</title>
<g id="Layer_2_1_">
	<g id="Layer_1-2">
		<g>
			<g>
				<g>
					<path class="st0" d="M55,35c0-6.6-5.4-12-12-12c-0.4,0-0.8,0-1.2,0.1c-3.3-8.2-12.6-12.2-20.8-8.9c-5.4,2.2-9.2,7.1-9.9,12.9
						H11c-5.5,0-10,4.5-10,10c0,5.5,4.5,10,10,10h32.1C49.7,47,55,41.6,55,35z"/>
					<path class="st1" d="M55,35c0-6.6-5.4-12-12-12c-0.4,0-0.7,0-1.1,0h-0.1c-2.1-5.2-6.7-8.9-12.1-9.8l-0.5-0.1
						c-0.2,0-0.5-0.1-0.7-0.1C28,13,27.5,13,27,13s-1,0-1.6,0.1c-3.7,0.4-7.1,2-9.7,4.6c7.9-2,16.3,0.6,21.6,6.8
						c-0.4,0.2-0.7,0.4-1.1,0.6c0.2,0,0.5,0,0.7,0c8.3,0,15,6.7,15,15c0,1.1-0.1,2.2-0.4,3.3C53.8,41.1,55,38.1,55,35z M40.8,23.2
						L40.8,23.2L40.8,23.2z"/>
				</g>
				<path class="st0" d="M61,19c0-5.5-4.5-10-10-10c-2.8-6.6-10.4-9.7-17-7c-4.5,1.9-7.6,6.1-7.9,11l0,0c0.3,0,0.6,0,0.9,0
					c6.5,0,12.4,4,14.9,10c0.4,0,0.8,0,1.2,0c4.2,0,8.1,2.2,10.2,5.8l0,0C57.8,27.7,61,23.7,61,19z"/>
				<path class="st2" d="M61,19c0-5.5-4.5-10-10-10c-2.8-6.6-10.4-9.7-17-7c-4.5,1.9-7.6,6.1-7.9,11l0,0c0.3,0,0.6,0,0.9,0
					c6.5,0,12.4,4,14.9,10c0.4,0,0.8,0,1.2,0c4.2,0,8.1,2.2,10.2,5.8l0,0C57.8,27.7,61,23.7,61,19z"/>
			</g>
			<g>
				<path class="st3" d="M53.2,28.8c5.4-1.2,8.8-6.6,7.5-12C59.7,12.2,55.7,9,51,9c-2.8-6.6-10.4-9.7-17-7c-4.5,1.9-7.6,6.1-7.9,11"
					/>
				<path class="st3" d="M55,35c0-6.6-5.4-12-12-12c-0.4,0-0.8,0-1.2,0c-3.3-8.2-12.6-12.2-20.8-8.9c-5.4,2.2-9.2,7.1-9.9,12.9H11
					C5.5,27,1,31.5,1,37s4.5,10,10,10h32.1C49.7,47,55,41.6,55,35z"/>
			</g>
		</g>
	</g>
</g>
</svg>
