<?xml version="1.0" encoding="utf-8"?>
<!-- Generator: Adobe Illustrator 22.0.1, SVG Export Plug-In . SVG Version: 6.00 Build 0)  -->
<svg version="1.1" id="Layer_1" xmlns="http://www.w3.org/2000/svg" xmlns:xlink="http://www.w3.org/1999/xlink" x="0px" y="0px"
	 viewBox="0 0 62 54" style="enable-background:new 0 0 62 54;" xml:space="preserve">
<style type="text/css">
	.st0{fill:#CDF0F0;}
	.st1{opacity:0.1;fill:#000064;enable-background:new    ;}
	.st2{opacity:0.5;fill:#FFFFFF;enable-background:new    ;}
	.st3{fill:none;stroke:#2E4369;stroke-width:2;stroke-linecap:round;stroke-linejoin:round;}
</style>
<title>Asset 90</title>
<g id="Layer_2_1_">
	<g id="Layer_1-2">
		<g>
			<g>
				<path class="st0" d="M54.3,37c2.2-6.2-1.1-13.1-7.3-15.3c-1.3-0.5-2.6-0.7-4-0.7c-0.4,0-0.8,0-1.2,0.1
					C38.5,12.9,29.2,8.9,21,12.2c-5.4,2.2-9.2,7.1-9.9,12.8L11,25C5.5,25,1,29.5,1,35c0,0.7,0.1,1.3,0.2,2H54.3z"/>
				<path class="st0" d="M61,19c0-5.5-4.5-10-10-10c-2.8-6.6-10.4-9.8-17-7c-3.8,1.6-6.7,4.9-7.7,9c0.2,0,0.4,0,0.6,0
					c6.5,0,12.4,4,14.9,10.1c0.4,0,0.8-0.1,1.2-0.1c4.9,0,9.3,3,11.1,7.5C58.2,27.2,61,23.3,61,19z"/>
				<path class="st1" d="M61,19c0-5.5-4.5-10-10-10c-2.8-6.6-10.4-9.8-17-7c-3.8,1.6-6.7,4.9-7.7,9c0.2,0,0.4,0,0.6,0
					c6.5,0,12.4,4,14.9,10.1c0.4,0,0.8-0.1,1.2-0.1c4.9,0,9.3,3,11.1,7.5C58.2,27.2,61,23.3,61,19z"/>
				<path class="st2" d="M37.4,22.4c-0.4,0.2-0.7,0.4-1.1,0.6c0.2,0,0.5,0,0.7,0c7.9,0,14.5,6.1,15,14h2.3
					c2.2-6.2-1.1-13.1-7.3-15.3c-1.3-0.5-2.6-0.7-4-0.7c-0.4,0-0.7,0-1.1,0.1h-0.1c-2.1-5.2-6.6-8.9-12.1-9.8l-0.5-0.1l-0.7-0.1
					C28,11,27.5,11,27,11s-1,0-1.6,0.1c-3.7,0.4-7.1,2-9.7,4.6C23.7,13.7,32,16.3,37.4,22.4z"/>
			</g>
			<g>
				<path class="st3" d="M54.8,31c-1-5.8-6-10-11.8-10c-0.4,0-0.8,0-1.2,0C38.5,12.9,29.2,8.9,21,12.2c-5.4,2.2-9.2,7.1-9.9,12.9H11
					c-4,0-7.6,2.4-9.2,6"/>
				<line class="st3" x1="1" y1="37" x2="57" y2="37"/>
				<line class="st3" x1="5" y1="45" x2="53" y2="45"/>
				<line class="st3" x1="11" y1="53" x2="49" y2="53"/>
				<path class="st3" d="M54.1,28.5c5.2-1.7,8.1-7.4,6.4-12.6C59.2,11.8,55.3,9,51,9c-2.8-6.6-10.4-9.8-17-7c-3.9,1.6-6.7,5-7.7,9"
					/>
			</g>
		</g>
	</g>
</g>
</svg>
