<svg xmlns="http://www.w3.org/2000/svg" viewBox="0 0 62 54">
  <defs>
    <style>
      .cls-1 {
        fill: #cdf0f0;
      }

      .cls-2 {
        fill: #000064;
        opacity: 0.1;
      }

      .cls-3 {
        fill: #fff;
        opacity: 0.5;
      }

      .cls-4 {
        fill: none;
        stroke: #2e4369;
        stroke-linecap: round;
        stroke-linejoin: round;
        stroke-width: 2px;
      }
    </style>
  </defs>
  <title>Asset 90</title>
  <g id="Layer_2" data-name="Layer 2">
    <g id="Layer_1-2" data-name="Layer 1">
      <g>
        <g>
          <path class="cls-1" d="M54.3,37A12,12,0,0,0,43,21a11.12,11.12,0,0,0-1.16.06,16,16,0,0,0-30.71,4L11,25A10,10,0,0,0,1.2,37Z"/>
          <path class="cls-1" d="M61,19A10,10,0,0,0,51,9a13,13,0,0,0-24.65,2c.21,0,.42,0,.64,0A16,16,0,0,1,41.84,21.06,11.12,11.12,0,0,1,43,21a12,12,0,0,1,11.12,7.5A10,10,0,0,0,61,19Z"/>
          <path class="cls-2" d="M61,19A10,10,0,0,0,51,9a13,13,0,0,0-24.65,2c.21,0,.42,0,.64,0A16,16,0,0,1,41.84,21.06,11.12,11.12,0,0,1,43,21a12,12,0,0,1,11.12,7.5A10,10,0,0,0,61,19Z"/>
          <path class="cls-2" d="M13.59,37A16.94,16.94,0,0,1,11,28a17.62,17.62,0,0,1,.25-2.83L11,25h0A10,10,0,0,0,1.2,37Z"/>
          <path class="cls-3" d="M37.41,22.39a12.21,12.21,0,0,0-1.1.65c.23,0,.46,0,.69,0A15,15,0,0,1,52,37H54.3A12,12,0,0,0,43,21a9.82,9.82,0,0,0-1.09.06h-.07a16,16,0,0,0-12.12-9.82l-.53-.08-.7-.08C28,11,27.5,11,27,11s-1.05,0-1.56.08a15.93,15.93,0,0,0-9.68,4.57,21.81,21.81,0,0,1,21.65,6.74Z"/>
        </g>
        <g>
          <path class="cls-4" d="M54.83,31A12,12,0,0,0,43,21c-.39,0-.77,0-1.15.05a16,16,0,0,0-30.72,4H11a10,10,0,0,0-9.17,6"/>
          <line class="cls-4" x1="1" y1="37" x2="57" y2="37"/>
          <line class="cls-4" x1="5" y1="45" x2="53" y2="45"/>
          <line class="cls-4" x1="11" y1="53" x2="48.99" y2="53"/>
          <path class="cls-4" d="M54.13,28.5A10,10,0,0,0,51,9a13,13,0,0,0-24.66,2"/>
        </g>
      </g>
    </g>
  </g>
</svg>
