<svg xmlns="http://www.w3.org/2000/svg" viewBox="0 0 62 49.99">
  <defs>
    <style>
      .cls-1 {
        fill: #cdf0f0;
      }

      .cls-2 {
        fill: #000064;
        opacity: 0.1;
      }

      .cls-3 {
        fill: #fff;
        opacity: 0.5;
      }

      .cls-4 {
        fill: none;
        stroke: #2e4369;
        stroke-linecap: round;
        stroke-linejoin: round;
        stroke-width: 2px;
      }
    </style>
  </defs>
  <title>Asset 34</title>
  <g id="Layer_2" data-name="Layer 2">
    <g id="Layer_1-2" data-name="Layer 1">
      <g>
        <g>
          <path class="cls-1" d="M48,11l.09,0H48c-.17,0-.33,0-.5,0a17,17,0,0,0-32.29,4.45A11,11,0,1,0,12,37H48a13,13,0,0,0,0-26Z"/>
          <path class="cls-2" d="M32.8,37A18,18,0,0,1,15,19a18.58,18.58,0,0,1,.32-3.36l-.1-.2s0,0,0,.05A11,11,0,1,0,12,37H32.8Z"/>
          <path class="cls-3" d="M61,24A13,13,0,0,0,48.11,11H48l-.51,0A17,17,0,0,0,34.62,1.2l-.14,0c-.35-.05-.7-.09-1.06-.12l-.77,0L32,1a16.88,16.88,0,0,0-9.88,3.18A22.84,22.84,0,0,1,25,4a23.89,23.89,0,0,1,17.91,8.06,13.32,13.32,0,0,0-3.46,2.16A16.45,16.45,0,0,1,42,14,16,16,0,0,1,58,30a16.45,16.45,0,0,1-.22,2.55A12.94,12.94,0,0,0,61,24Z"/>
        </g>
        <g>
          <g>
            <path class="cls-4" d="M55,21a4,4,0,0,1,4,4h0a4,4,0,0,1-4,4H47"/>
            <path class="cls-4" d="M57,45a4,4,0,0,0,4-4h0a4,4,0,0,0-4-4H43"/>
            <path class="cls-4" d="M55,13.06A13,13,0,0,0,48,11c-.17,0-.33,0-.5,0a17,17,0,0,0-32.29,4.45A11,11,0,1,0,12,37H33a6,6,0,0,1,6,6h0a6,6,0,0,1-6,6"/>
            <path class="cls-4" d="M23,29H37a6,6,0,0,0,6-6h0a6,6,0,0,0-6-6"/>
          </g>
          <line class="cls-4" x1="19" y1="28.99" x2="17" y2="28.99"/>
        </g>
      </g>
    </g>
  </g>
</svg>
