<?xml version="1.0" encoding="utf-8"?>
<!-- Generator: Adobe Illustrator 22.0.1, SVG Export Plug-In . SVG Version: 6.00 Build 0)  -->
<svg version="1.1" id="Layer_1" xmlns="http://www.w3.org/2000/svg" xmlns:xlink="http://www.w3.org/1999/xlink" x="0px" y="0px"
	 viewBox="0 0 62 50" style="enable-background:new 0 0 62 50;" xml:space="preserve">
<style type="text/css">
	.st0{fill:#CDF0F0;}
	.st1{fill:#FFCC00;}
	.st2{opacity:0.5;fill:#FFFFFF;enable-background:new    ;}
	.st3{fill:none;stroke:#2E4369;stroke-width:2;stroke-linecap:round;stroke-linejoin:round;}
</style>
<title>Asset 102</title>
<g id="Layer_2_1_">
	<g id="Layer_1-2">
		<g>
			<g>
				<path class="st0" d="M51,29c-2.7-6.6-10.3-9.8-17-7.1c-4.6,1.9-7.7,6.2-8,11.2c-0.3-0.1-0.7-0.1-1-0.1c-4.4,0-8,3.6-8,8
					s3.6,8,8,8h26c5.5,0,10-4.5,10-10S56.5,29,51,29z"/>
				<path class="st1" d="M33,22.5L33,22.5c-0.3-5.5-5-9.8-10.5-9.5c-5.5,0.3-9.8,5-9.5,10.5c0.3,5.3,4.7,9.5,10,9.5
					c1.1,0,2.1-0.2,3.1-0.5l0,0C26.6,28.2,29.2,24.5,33,22.5z"/>
				<path class="st2" d="M47.2,29.8c-1.3,0.6-2.5,1.4-3.5,2.5c0.8-0.1,1.6-0.2,2.4-0.2c6.6,0,12,5.4,12,12c0,0.8-0.1,1.6-0.2,2.3
					c4.1-3.7,4.3-10.1,0.6-14.1c-1.7-1.9-4.2-3.1-6.7-3.2l0,0c-0.2,0-0.4,0-0.6,0c-2.8-6.6-10.4-9.7-17-7c-1.4,0.6-2.6,1.4-3.7,2.4
					c1.2-0.3,2.5-0.4,3.7-0.4C39,24,43.8,26.1,47.2,29.8z"/>
			</g>
			<g>
				<path class="st3" d="M26.1,32.5c-1,0.3-2.1,0.5-3.1,0.5c-5.5,0-10-4.5-10-10c0-5.5,4.5-10,10-10c5.3,0,9.7,4.2,10,9.5"/>
				<line class="st3" x1="23" y1="1" x2="23" y2="7"/>
				<line class="st3" x1="7" y1="23" x2="1" y2="23"/>
				<line class="st3" x1="7.4" y1="7.4" x2="11.7" y2="11.7"/>
				<line class="st3" x1="38.6" y1="7.4" x2="34.3" y2="11.7"/>
				<line class="st3" x1="11.7" y1="34.3" x2="7.4" y2="38.6"/>
				<path class="st3" d="M51,29c-2.7-6.6-10.3-9.8-17-7.1c-4.6,1.9-7.7,6.2-8,11.2c-0.3-0.1-0.7-0.1-1-0.1c-4.4,0-8,3.6-8,8
					s3.6,8,8,8h26c5.5,0,10-4.5,10-10S56.5,29,51,29z"/>
			</g>
		</g>
	</g>
</g>
</svg>
