<?xml version="1.0" encoding="utf-8"?>
<!-- Generator: Adobe Illustrator 22.0.1, SVG Export Plug-In . SVG Version: 6.00 Build 0)  -->
<svg version="1.1" id="Layer_1" xmlns="http://www.w3.org/2000/svg" xmlns:xlink="http://www.w3.org/1999/xlink" x="0px" y="0px"
	 viewBox="0 0 62 48" style="enable-background:new 0 0 62 48;" xml:space="preserve">
<style type="text/css">
	.st0{fill:#CDF0F0;}
	.st1{opacity:0.5;fill:#FFFFFF;enable-background:new    ;}
	.st2{fill:#E6F0FA;}
	.st3{fill:none;stroke:#2E4369;stroke-width:2;stroke-linecap:round;stroke-linejoin:round;}
</style>
<title>Asset 100</title>
<g id="Layer_2_1_">
	<g id="Layer_1-2">
		<g>
			<g>
				<path class="st0" d="M61,35c0-6.6-5.4-12-12-12c-0.4,0-0.8,0-1.2,0.1c-3.3-8.2-12.6-12.2-20.8-8.8c-5.4,2.2-9.2,7.1-9.9,12.8H17
					c-5.5,0-10,4.5-10,10c0,5.5,4.5,10,10,10h32.1C55.7,47,61,41.6,61,35z"/>
				<path class="st1" d="M61,35c0-6.6-5.4-12-12-12c-0.4,0-0.7,0-1.1,0h-0.1c-2.1-5.2-6.6-8.9-12.1-9.8l-0.5-0.1
					c-0.2,0-0.5-0.1-0.7-0.1C34,13,33.5,13,33,13s-1,0-1.6,0.1c-3.7,0.4-7.1,2-9.7,4.6c7.9-2,16.3,0.6,21.6,6.8
					c-0.4,0.2-0.7,0.4-1.1,0.6c0.2,0,0.5,0,0.7,0c8.3,0,15,6.7,15,15c0,1.1-0.1,2.2-0.4,3.3C59.8,41.1,61,38.1,61,35z M46.8,23.2
					L46.8,23.2L46.8,23.2z"/>
				<path class="st2" d="M17.1,27c0.8-6.5,5.5-11.8,11.8-13.5C28.2,6.4,22.2,1,15,1c-0.3,0-0.6,0-0.8,0c2.2,5.1-0.1,11-5.2,13.2
					C7.7,14.7,6.4,15,5,15c-1.4,0-2.7-0.3-4-0.8c0,0.3,0,0.5,0,0.8c0,6.4,4.4,12,10.6,13.6l0,0c1.6-1,3.5-1.6,5.4-1.6H17.1z"/>
			</g>
			<g>
				<path class="st3" d="M28.9,13.6C28.2,6.4,22.2,1,15,1c-0.3,0-0.6,0-0.8,0c2.2,5.1-0.1,11-5.2,13.2C7.7,14.7,6.4,15,5,15
					c-1.4,0-2.7-0.3-4-0.8c0,0.3,0,0.5,0,0.8c0,6.4,4.4,12,10.6,13.6"/>
				<path class="st3" d="M61,35c0-6.6-5.4-12-12-12c-0.4,0-0.8,0-1.2,0c-3.3-8.2-12.6-12.2-20.8-8.9c-5.4,2.2-9.2,7.1-9.9,12.9H17
					c-5.5,0-10,4.5-10,10s4.5,10,10,10h32.1C55.7,47,61,41.6,61,35z"/>
			</g>
		</g>
	</g>
</g>
</svg>
