<?xml version="1.0" encoding="utf-8"?>
<!-- Generator: Adobe Illustrator 22.0.1, SVG Export Plug-In . SVG Version: 6.00 Build 0)  -->
<svg version="1.1" id="Layer_1" xmlns="http://www.w3.org/2000/svg" xmlns:xlink="http://www.w3.org/1999/xlink" x="0px" y="0px"
	 viewBox="0 0 62 62" style="enable-background:new 0 0 62 62;" xml:space="preserve">
<style type="text/css">
	.st0{fill:#CDF0F0;}
	.st1{opacity:0.5;fill:#FFFFFF;enable-background:new    ;}
	.st2{fill:none;stroke:#2E4369;stroke-width:2;stroke-linecap:round;stroke-linejoin:round;}
</style>
<title>Asset 89</title>
<g id="Layer_2_1_">
	<g id="Layer_1-2">
		<g>
			<g>
				<path class="st0" d="M48,11c-0.2,0-0.3,0-0.5,0C43.6,2.4,33.6-1.3,25,2.5c-5.2,2.4-8.9,7.2-9.8,12.9c-5.8-1.7-11.9,1.6-13.7,7.4
					S3.2,34.8,9,36.6c1,0.3,2,0.4,3,0.4h36c7.2,0,13-5.8,13-13S55.2,11,48,11z"/>
				<path class="st1" d="M61,24c0-7.2-5.8-13-13-13c-0.2,0-0.3,0-0.5,0c-2.3-5-6.9-8.7-12.3-9.7c-0.4-0.1-0.8-0.1-1.2-0.2h-0.2
					C33.2,1,32.6,1,32,1c-1.1,0-2.1,0.1-3.2,0.3c-3.1,0.6-5.9,2-8.3,4.2c7.9-1.6,16,1.1,21.4,7.1c-1.6,0.8-3,2-4.2,3.4
					c7.8-2.8,16.4,1.1,19.2,8.9c0.6,1.6,0.9,3.4,0.9,5.1c0,0.9-0.1,1.7-0.2,2.6C59.8,30.2,61,27.2,61,24z"/>
				<circle class="st0" cx="3" cy="55" r="1"/>
				<circle class="st0" cx="59" cy="55" r="1"/>
			</g>
			<g>
				<path class="st2" d="M48,11c-0.2,0-0.3,0-0.5,0C43.6,2.4,33.6-1.3,25,2.5c-5.2,2.4-8.9,7.2-9.8,12.9c-5.8-1.7-11.9,1.6-13.7,7.4
					S3.2,34.8,9,36.6c1,0.3,2,0.4,3,0.4h36c7.2,0,13-5.8,13-13S55.2,11,48,11z"/>
				<line class="st2" x1="43" y1="45" x2="43" y2="61"/>
				<line class="st2" x1="35" y1="45" x2="35" y2="51"/>
				<line class="st2" x1="27" y1="45" x2="27" y2="55"/>
				<line class="st2" x1="19" y1="45" x2="19" y2="61"/>
				<path class="st2" d="M9,55.1c4.3-0.4,8.3,2,10,5.9"/>
				<path class="st2" d="M53,55.1c-4.3-0.4-8.3,2-10,5.9"/>
				<line class="st2" x1="27" y1="61" x2="27" y2="61"/>
				<line class="st2" x1="35" y1="57" x2="35" y2="57"/>
				<line class="st2" x1="59" y1="55" x2="59" y2="55"/>
				<circle class="st2" cx="3" cy="55" r="1"/>
				<circle class="st2" cx="59" cy="55" r="1"/>
			</g>
		</g>
	</g>
</g>
</svg>
