<?xml version="1.0" encoding="utf-8"?>
<!-- Generator: Adobe Illustrator 22.0.1, SVG Export Plug-In . SVG Version: 6.00 Build 0)  -->
<svg version="1.1" id="Layer_1" xmlns="http://www.w3.org/2000/svg" xmlns:xlink="http://www.w3.org/1999/xlink" x="0px" y="0px"
	 viewBox="0 0 62 62" style="enable-background:new 0 0 62 62;" xml:space="preserve">
<style type="text/css">
	.st0{fill:#C4FFFF;}
	.st1{opacity:0.5;fill:#FFFFFF;enable-background:new    ;}
	.st2{fill:none;stroke:#2E4369;stroke-width:2;stroke-linecap:round;stroke-linejoin:round;}
</style>
<title>Asset 20</title>
<g id="Layer_2_1_">
	<g id="Layer_1-2">
		<g>
			<g>
				<polygon class="st0" points="31,1 23,11 9.8,9.8 13,24 1,31 14,38 9.8,52.2 24,49 31,61 38,49 52.2,52.2 50,39 61,31 50,23 
					52.2,9.8 39,11 				"/>
				<polygon class="st1" points="32,31 61,31 50,23 				"/>
				<polygon class="st1" points="52,10 52.2,10 52.2,9.8 39,11 31,1 31,31 				"/>
			</g>
			<g>
				<polyline class="st2" points="22.4,2.4 31,11 39.6,2.4 				"/>
				<polyline class="st2" points="22.4,59.6 31,51 39.6,59.6 				"/>
				<polyline class="st2" points="2.4,39.6 11,31 2.4,22.4 				"/>
				<polyline class="st2" points="59.6,39.6 51,31 59.6,22.4 				"/>
				<polyline class="st2" points="4.8,17 17,17 17,4.8 				"/>
				<polyline class="st2" points="45,57.2 45,45 57.2,45 				"/>
				<polyline class="st2" points="17,57.2 17,45 4.8,45 				"/>
				<polyline class="st2" points="57.2,17 45,17 45,4.8 				"/>
				<line class="st2" x1="1" y1="31" x2="61" y2="31"/>
				<line class="st2" x1="31" y1="1" x2="31" y2="61"/>
				<line class="st2" x1="9.8" y1="9.8" x2="52.2" y2="52.2"/>
				<line class="st2" x1="52.2" y1="9.8" x2="9.8" y2="52.2"/>
			</g>
		</g>
	</g>
</g>
</svg>
