<?xml version="1.0" encoding="utf-8"?>
<!-- Generator: Adobe Illustrator 22.0.1, SVG Export Plug-In . SVG Version: 6.00 Build 0)  -->
<svg version="1.1" id="Capa_1" xmlns="http://www.w3.org/2000/svg" xmlns:xlink="http://www.w3.org/1999/xlink" x="0px" y="0px"
	 viewBox="0 0 280 512" style="enable-background:new 0 0 280 512;" xml:space="preserve">
<style type="text/css">
	.st0{fill:#3C3C3C;}
	.st1{fill:#E6E6E6;}
	.st2{opacity:0.2;fill:#FFFFFF;enable-background:new    ;}
	.st3{fill:#F46F64;}
</style>
<g>
	<path class="st0" d="M234.7,385.4V53.3c0-29.4-23.9-53.3-53.3-53.3S128,23.9,128,53.3v332.1c-13.6,14-21.3,32.6-21.3,51.9
		c0,41.2,33.5,74.7,74.7,74.7s74.7-33.5,74.7-74.7C256,418,248.3,399.4,234.7,385.4z"/>
</g>
<path class="st1" d="M181.3,490.7c-29.4,0-53.3-23.9-53.3-53.3c0-15.1,6.3-29.1,17.8-39.5c2.2-2,3.5-4.9,3.5-7.9V53.3
	c0-17.6,14.4-32,32-32s32,14.4,32,32v336.6c0,3,1.3,5.9,3.5,7.9c11.5,10.3,17.8,24.4,17.8,39.5C234.7,466.7,210.7,490.7,181.3,490.7
	z"/>
<path class="st2" d="M138.7,448c0-15.1,6.3-29.1,17.8-39.5c2.2-2,3.5-4.9,3.5-7.9V64c0-17.6,14.4-32,32-32c6.1,0,11.7,1.8,16.6,4.8
	c-5.6-9.2-15.7-15.4-27.2-15.4c-17.6,0-32,14.4-32,32v336.6c0,3-1.3,5.9-3.5,7.9c-11.5,10.3-17.8,24.4-17.8,39.5
	c0,17.4,8.5,32.8,21.5,42.5C142.8,470.9,138.7,460,138.7,448z"/>
<g>
	<path class="st0" d="M96,341.3H32c-5.9,0-10.7,4.8-10.7,10.7s4.8,10.7,10.7,10.7h64c5.9,0,10.7-4.8,10.7-10.7S101.9,341.3,96,341.3
		z"/>
	<path class="st0" d="M96,298.7H74.7c-5.9,0-10.7,4.8-10.7,10.7S68.8,320,74.7,320H96c5.9,0,10.7-4.8,10.7-10.7
		S101.9,298.7,96,298.7z"/>
	<path class="st0" d="M96,256H74.7c-5.9,0-10.7,4.8-10.7,10.7s4.8,10.7,10.7,10.7H96c5.9,0,10.7-4.8,10.7-10.7S101.9,256,96,256z"/>
	<path class="st0" d="M32,234.7h64c5.9,0,10.7-4.8,10.7-10.7c0-5.9-4.8-10.7-10.7-10.7H32c-5.9,0-10.7,4.8-10.7,10.7
		S26.1,234.7,32,234.7z"/>
	<path class="st0" d="M32,106.7h64c5.9,0,10.7-4.8,10.7-10.7S101.9,85.3,96,85.3H32c-5.9,0-10.7,4.8-10.7,10.7
		C21.3,101.9,26.1,106.7,32,106.7z"/>
	<path class="st0" d="M96,170.7H74.7c-5.9,0-10.7,4.8-10.7,10.7c0,5.9,4.8,10.7,10.7,10.7H96c5.9,0,10.7-4.8,10.7-10.7
		C106.7,175.4,101.9,170.7,96,170.7z"/>
	<path class="st0" d="M96,128H74.7c-5.9,0-10.7,4.8-10.7,10.7s4.8,10.7,10.7,10.7H96c5.9,0,10.7-4.8,10.7-10.7S101.9,128,96,128z"/>
</g>
<path class="st3" d="M192,419.3V224c0-5.9-4.8-10.7-10.7-10.7s-10.7,4.8-10.7,10.7v195.3c-6.3,3.7-10.7,10.3-10.7,18.1
	c0,11.8,9.6,21.3,21.3,21.3c11.8,0,21.3-9.6,21.3-21.3C202.7,429.5,198.3,423,192,419.3z"/>
</svg>
